<svg width="275" height="549" viewBox="0 0 275 549" fill="none" xmlns="http://www.w3.org/2000/svg">
<path d="M195.657 352.979C152.156 460.921 29.3867 513.161 -78.5557 469.66C-186.498 426.159 -238.738 303.389 -195.237 195.447C-151.735 87.5046 -28.9661 35.2647 78.9762 78.766C186.919 122.267 239.158 245.036 195.657 352.979ZM-165.92 207.262C-202.896 299.013 -158.492 403.367 -66.7408 440.343C25.0102 477.319 129.364 432.915 166.34 341.164C203.316 249.413 158.912 145.059 67.1614 108.083C-24.5897 71.1069 -128.944 115.511 -165.92 207.262Z" fill="url(#paint0_linear_241_5)" fill-opacity="0.3"/>
<path d="M161.083 339.045C125.277 427.892 24.2265 470.891 -64.6204 435.085C-153.467 399.279 -196.466 298.228 -160.66 209.381C-124.854 120.534 -23.8035 77.536 65.0434 113.342C153.89 149.147 196.889 250.198 161.083 339.045ZM-136.529 219.106C-166.964 294.626 -130.416 380.519 -54.8956 410.954C20.6243 441.389 106.518 404.84 136.952 329.32C167.387 253.801 130.839 167.907 55.3187 137.472C-20.2012 107.038 -106.094 143.586 -136.529 219.106Z" fill="url(#paint1_linear_241_5)" fill-opacity="0.3"/>
<path d="M132.27 327.433C102.878 400.367 19.9254 435.664 -53.0087 406.271C-125.943 376.879 -161.24 293.926 -131.847 220.992C-102.454 148.058 -19.5022 112.761 53.4318 142.154C126.366 171.547 161.663 254.499 132.27 327.433ZM-112.038 228.975C-137.022 290.969 -107.02 361.479 -45.0256 386.463C16.9683 411.446 87.4777 381.444 112.462 319.45C137.445 257.456 107.443 186.946 45.4488 161.963C-16.5452 136.979 -87.0546 166.981 -112.038 228.975Z" fill="url(#paint2_linear_241_5)" fill-opacity="0.3"/>
<path d="M108.163 317.997C84.1679 377.538 16.4487 406.353 -43.092 382.358C-102.633 358.363 -131.448 290.644 -107.453 231.103C-83.4578 171.562 -15.7386 142.747 43.8021 166.742C103.343 190.737 132.158 258.456 108.163 317.997ZM-91.2817 237.62C-111.678 288.23 -87.1846 345.791 -36.575 366.187C14.0346 386.583 71.5959 362.09 91.9918 311.48C112.388 260.87 87.8946 203.309 37.285 182.913C-13.3245 162.517 -70.8859 187.01 -91.2817 237.62Z" fill="url(#paint3_linear_241_5)" fill-opacity="0.3"/>
<path d="M87.6088 309.435C68.1562 357.704 13.2569 381.064 -35.0122 361.612C-83.2812 342.159 -106.642 287.26 -87.1889 238.991C-67.7363 190.722 -12.837 167.361 35.4321 186.814C83.7012 206.267 107.061 261.166 87.6088 309.435ZM-74.0791 244.274C-90.6138 285.303 -70.7576 331.967 -29.7288 348.502C11.2999 365.037 57.9643 345.18 74.499 304.152C91.0338 263.123 71.1775 216.458 30.1488 199.924C-10.8799 183.389 -57.5443 203.245 -74.0791 244.274Z" fill="url(#paint4_linear_241_5)" fill-opacity="0.3"/>
<path d="M69.3612 302.081C53.9701 340.272 10.5333 358.755 -27.6576 343.364C-65.8485 327.973 -84.3314 284.536 -68.9403 246.345C-53.5492 208.154 -10.1124 189.671 28.0785 205.062C66.2694 220.453 84.7523 263.89 69.3612 302.081ZM-58.5677 250.525C-71.6501 282.988 -55.9397 319.909 -23.4774 332.991C8.98487 346.074 45.9062 330.363 58.9886 297.901C72.071 265.439 56.3606 228.517 23.8983 215.435C-8.56399 202.353 -45.4853 218.063 -58.5677 250.525Z" fill="url(#paint5_linear_241_5)" fill-opacity="0.3"/>
<path d="M53.131 295.261C41.3205 324.567 7.98878 338.75 -21.3174 326.94C-50.6237 315.129 -64.8067 281.798 -52.9962 252.491C-41.1857 223.185 -7.85394 209.002 21.4523 220.813C50.7585 232.623 64.9415 265.955 53.131 295.261ZM-45.0366 255.699C-55.0756 280.609 -43.02 308.941 -18.1097 318.98C6.80057 329.019 35.1325 316.964 45.1715 292.053C55.2104 267.143 43.1548 238.811 18.2445 228.772C-6.66574 218.733 -34.9977 230.789 -45.0366 255.699Z" fill="url(#paint6_linear_241_5)" fill-opacity="0.3"/>
<path d="M40.2612 289.795C31.0693 312.604 5.6654 323.859 -16.48 314.934C-38.6254 306.009 -49.1263 280.285 -39.9344 257.476C-30.7425 234.668 -5.3386 223.413 16.8068 232.337C38.9522 241.262 49.4531 266.987 40.2612 289.795ZM-33.9198 259.9C-41.7329 279.287 -32.8071 301.153 -13.9835 308.739C4.8401 316.325 26.4334 306.759 34.2466 287.371C42.0597 267.984 33.1339 246.118 14.3103 238.532C-4.5133 230.946 -26.1066 240.513 -33.9198 259.9Z" fill="url(#paint7_linear_241_5)" fill-opacity="0.3"/>
<path d="M29.5035 286.019C22.9837 302.197 4.58335 310.026 -11.5947 303.507C-27.7728 296.987 -35.6024 278.586 -29.0826 262.408C-22.5627 246.23 -4.16241 238.401 12.0157 244.92C28.1938 251.44 36.0233 269.841 29.5035 286.019ZM-24.6886 264.179C-30.2305 277.93 -23.5753 293.571 -9.82396 299.113C3.92742 304.654 19.5677 297.999 25.1095 284.248C30.6514 270.497 23.9963 254.856 10.2449 249.314C-3.50648 243.773 -19.1467 250.428 -24.6886 264.179Z" fill="url(#paint8_linear_241_5)" fill-opacity="0.3"/>
<defs>
<linearGradient id="paint0_linear_241_5" x1="191.803" y1="367.126" x2="-177.793" y2="216.33" gradientUnits="userSpaceOnUse">
<stop offset="0.4375" stop-color="#FF0062" stop-opacity="0.11"/>
<stop offset="1" stop-color="#FE6804"/>
</linearGradient>
<linearGradient id="paint1_linear_241_5" x1="157.911" y1="350.689" x2="-146.303" y2="226.57" gradientUnits="userSpaceOnUse">
<stop offset="0.4375" stop-color="#FF0062" stop-opacity="0.11"/>
<stop offset="1" stop-color="#FE6804"/>
</linearGradient>
<linearGradient id="paint2_linear_241_5" x1="129.666" y1="336.992" x2="-120.061" y2="235.102" gradientUnits="userSpaceOnUse">
<stop offset="0.4375" stop-color="#FF0062" stop-opacity="0.11"/>
<stop offset="1" stop-color="#FE6804"/>
</linearGradient>
<linearGradient id="paint3_linear_241_5" x1="106.037" y1="325.8" x2="-97.8313" y2="242.622" gradientUnits="userSpaceOnUse">
<stop offset="0.4375" stop-color="#FF0062" stop-opacity="0.11"/>
<stop offset="1" stop-color="#FE6804"/>
</linearGradient>
<linearGradient id="paint4_linear_241_5" x1="85.8853" y1="315.761" x2="-79.3888" y2="248.329" gradientUnits="userSpaceOnUse">
<stop offset="0.4375" stop-color="#FF0062" stop-opacity="0.11"/>
<stop offset="1" stop-color="#FE6804"/>
</linearGradient>
<linearGradient id="paint5_linear_241_5" x1="67.9976" y1="307.086" x2="-62.7688" y2="253.734" gradientUnits="userSpaceOnUse">
<stop offset="0.4375" stop-color="#FF0062" stop-opacity="0.11"/>
<stop offset="1" stop-color="#FE6804"/>
</linearGradient>
<linearGradient id="paint6_linear_241_5" x1="52.0846" y1="299.102" x2="-48.2604" y2="258.161" gradientUnits="userSpaceOnUse">
<stop offset="0.4375" stop-color="#FF0062" stop-opacity="0.11"/>
<stop offset="1" stop-color="#FE6804"/>
</linearGradient>
<linearGradient id="paint7_linear_241_5" x1="39.4371" y1="292.781" x2="-36.3931" y2="261.853" gradientUnits="userSpaceOnUse">
<stop offset="0.4375" stop-color="#FF0062" stop-opacity="0.11"/>
<stop offset="1" stop-color="#FE6804"/>
</linearGradient>
<linearGradient id="paint8_linear_241_5" x1="28.9258" y1="288.139" x2="-26.4682" y2="265.538" gradientUnits="userSpaceOnUse">
<stop offset="0.4375" stop-color="#FF0062" stop-opacity="0.11"/>
<stop offset="1" stop-color="#FE6804"/>
</linearGradient>
</defs>
</svg>
