<svg width="595" height="978" viewBox="0 0 595 978" fill="none" xmlns="http://www.w3.org/2000/svg">
<path d="M-5 978V0L317.897 137.166C355.065 152.955 382.603 185.357 392.191 224.585L414.322 315.127C420.618 340.886 418.759 367.964 409.002 392.62L238.063 824.567C235.092 832.072 231.017 839.091 225.972 845.392L201.093 876.46C193.001 886.564 182.605 894.582 170.776 899.842L-5 978Z" fill="url(#paint0_linear_237_2)"/>
<path d="M515.659 626.979C472.158 734.921 349.389 787.161 241.446 743.66C133.504 700.159 81.2641 577.389 124.765 469.447C168.267 361.505 291.036 309.265 398.978 352.766C506.921 396.267 559.16 519.036 515.659 626.979ZM154.082 481.262C117.106 573.013 161.51 677.367 253.261 714.343C345.012 751.319 449.366 706.915 486.342 615.164C523.318 523.413 478.914 419.059 387.163 382.083C295.412 345.107 191.058 389.511 154.082 481.262Z" fill="url(#paint1_linear_237_2)" fill-opacity="0.3"/>
<path d="M481.085 613.045C445.279 701.892 344.228 744.891 255.382 709.085C166.535 673.279 123.536 572.228 159.342 483.381C195.148 394.534 296.198 351.536 385.045 387.342C473.892 423.147 516.891 524.198 481.085 613.045ZM183.473 493.106C153.038 568.626 189.586 654.519 265.106 684.954C340.626 715.389 426.519 678.84 456.954 603.32C487.389 527.801 450.84 441.907 375.321 411.472C299.801 381.038 213.907 417.586 183.473 493.106Z" fill="url(#paint2_linear_237_2)" fill-opacity="0.3"/>
<path d="M452.272 601.433C422.88 674.367 339.927 709.665 266.993 680.272C194.059 650.879 158.762 567.927 188.155 494.993C217.547 422.059 300.5 386.762 373.434 416.154C446.368 445.547 481.665 528.499 452.272 601.433ZM207.964 502.976C182.98 564.97 212.982 635.479 274.976 660.463C336.97 685.447 407.48 655.444 432.463 593.45C457.447 531.456 427.445 460.947 365.451 435.963C303.457 410.979 232.947 440.982 207.964 502.976Z" fill="url(#paint3_linear_237_2)" fill-opacity="0.3"/>
<path d="M428.165 591.997C404.17 651.538 336.451 680.353 276.91 656.358C217.369 632.363 188.554 564.644 212.549 505.103C236.544 445.562 304.263 416.747 363.804 440.742C423.345 464.737 452.16 532.456 428.165 591.997ZM228.72 511.62C208.324 562.23 232.817 619.791 283.427 640.187C334.037 660.583 391.598 636.09 411.994 585.48C432.39 534.87 407.897 477.309 357.287 456.913C306.677 436.517 249.116 461.01 228.72 511.62Z" fill="url(#paint4_linear_237_2)" fill-opacity="0.3"/>
<path d="M407.611 583.435C388.158 631.704 333.259 655.064 284.99 635.612C236.721 616.159 213.36 561.26 232.813 512.991C252.266 464.722 307.165 441.361 355.434 460.814C403.703 480.267 427.063 535.166 407.611 583.435ZM245.923 518.274C229.388 559.303 249.244 605.967 290.273 622.502C331.302 639.037 377.966 619.18 394.501 578.152C411.036 537.123 391.179 490.458 350.151 473.924C309.122 457.389 262.458 477.245 245.923 518.274Z" fill="url(#paint5_linear_237_2)" fill-opacity="0.3"/>
<path d="M389.363 576.081C373.972 614.272 330.535 632.755 292.344 617.363C254.153 601.972 235.671 558.536 251.062 520.345C266.453 482.154 309.89 463.671 348.08 479.062C386.271 494.453 404.754 537.89 389.363 576.081ZM261.434 524.525C248.352 556.987 264.062 593.908 296.525 606.991C328.987 620.073 365.908 604.363 378.991 571.901C392.073 539.438 376.363 502.517 343.9 489.435C311.438 476.352 274.517 492.063 261.434 524.525Z" fill="url(#paint6_linear_237_2)" fill-opacity="0.3"/>
<path d="M373.133 569.261C361.322 598.567 327.991 612.75 298.685 600.94C269.378 589.129 255.195 555.798 267.006 526.491C278.816 497.185 312.148 483.002 341.454 494.813C370.76 506.623 384.944 539.955 373.133 569.261ZM274.965 529.699C264.926 554.609 276.982 582.941 301.892 592.98C326.803 603.019 355.134 590.964 365.173 566.053C375.212 541.143 363.157 512.811 338.246 502.772C313.336 492.733 285.004 504.789 274.965 529.699Z" fill="url(#paint7_linear_237_2)" fill-opacity="0.3"/>
<path d="M360.263 563.796C351.071 586.604 325.667 597.859 303.522 588.935C281.377 580.01 270.876 554.285 280.068 531.477C289.259 508.668 314.663 497.413 336.809 506.338C358.954 515.263 369.455 540.987 360.263 563.796ZM286.082 533.901C278.269 553.288 287.195 575.154 306.018 582.74C324.842 590.326 346.435 580.759 354.249 561.372C362.062 541.985 353.136 520.119 334.312 512.533C315.489 504.947 293.895 514.513 286.082 533.901Z" fill="url(#paint8_linear_237_2)" fill-opacity="0.3"/>
<path d="M349.505 560.018C342.986 576.196 324.585 584.026 308.407 577.506C292.229 570.986 284.4 552.586 290.919 536.408C297.439 520.23 315.84 512.4 332.018 518.92C348.196 525.44 356.025 543.84 349.505 560.018ZM295.313 538.179C289.771 551.93 296.427 567.57 310.178 573.112C323.929 578.654 339.57 571.999 345.111 558.247C350.653 544.496 343.998 528.856 330.247 523.314C316.495 517.772 300.855 524.427 295.313 538.179Z" fill="url(#paint9_linear_237_2)" fill-opacity="0.3"/>
<defs>
<linearGradient id="paint0_linear_237_2" x1="410" y1="345.5" x2="-29.5" y2="416" gradientUnits="userSpaceOnUse">
<stop stop-color="#FE6803"/>
<stop offset="1" stop-color="#D50154"/>
</linearGradient>
<linearGradient id="paint1_linear_237_2" x1="511.805" y1="641.126" x2="142.208" y2="490.33" gradientUnits="userSpaceOnUse">
<stop offset="0.4375" stop-color="#FF0062" stop-opacity="0.11"/>
<stop offset="1" stop-color="#FE6804"/>
</linearGradient>
<linearGradient id="paint2_linear_237_2" x1="477.913" y1="624.689" x2="173.699" y2="500.57" gradientUnits="userSpaceOnUse">
<stop offset="0.4375" stop-color="#FF0062" stop-opacity="0.11"/>
<stop offset="1" stop-color="#FE6804"/>
</linearGradient>
<linearGradient id="paint3_linear_237_2" x1="449.668" y1="610.992" x2="199.941" y2="509.103" gradientUnits="userSpaceOnUse">
<stop offset="0.4375" stop-color="#FF0062" stop-opacity="0.11"/>
<stop offset="1" stop-color="#FE6804"/>
</linearGradient>
<linearGradient id="paint4_linear_237_2" x1="426.039" y1="599.8" x2="222.171" y2="516.622" gradientUnits="userSpaceOnUse">
<stop offset="0.4375" stop-color="#FF0062" stop-opacity="0.11"/>
<stop offset="1" stop-color="#FE6804"/>
</linearGradient>
<linearGradient id="paint5_linear_237_2" x1="405.887" y1="589.761" x2="240.613" y2="522.329" gradientUnits="userSpaceOnUse">
<stop offset="0.4375" stop-color="#FF0062" stop-opacity="0.11"/>
<stop offset="1" stop-color="#FE6804"/>
</linearGradient>
<linearGradient id="paint6_linear_237_2" x1="388" y1="581.086" x2="257.233" y2="527.733" gradientUnits="userSpaceOnUse">
<stop offset="0.4375" stop-color="#FF0062" stop-opacity="0.11"/>
<stop offset="1" stop-color="#FE6804"/>
</linearGradient>
<linearGradient id="paint7_linear_237_2" x1="372.087" y1="573.102" x2="271.742" y2="532.161" gradientUnits="userSpaceOnUse">
<stop offset="0.4375" stop-color="#FF0062" stop-opacity="0.11"/>
<stop offset="1" stop-color="#FE6804"/>
</linearGradient>
<linearGradient id="paint8_linear_237_2" x1="359.439" y1="566.781" x2="283.609" y2="535.853" gradientUnits="userSpaceOnUse">
<stop offset="0.4375" stop-color="#FF0062" stop-opacity="0.11"/>
<stop offset="1" stop-color="#FE6804"/>
</linearGradient>
<linearGradient id="paint9_linear_237_2" x1="348.928" y1="562.138" x2="293.534" y2="539.538" gradientUnits="userSpaceOnUse">
<stop offset="0.4375" stop-color="#FF0062" stop-opacity="0.11"/>
<stop offset="1" stop-color="#FE6804"/>
</linearGradient>
</defs>
</svg>
