<svg width="478" height="524" viewBox="0 0 478 524" fill="none" xmlns="http://www.w3.org/2000/svg">
<path d="M809.5 524V137L174.19 231.156C161.47 233.041 149.108 236.841 137.525 242.425C112.527 254.478 92.146 274.362 79.4795 299.055L19.5285 415.929C7.4689 439.439 9.05489 467.631 23.6752 489.64L24.8395 491.393C38.3686 511.759 61.1955 524 85.6459 524H809.5Z" fill="url(#paint0_linear_240_4)"/>
<path d="M355.208 49.4582C438.166 22.143 527.561 67.2506 554.876 150.209C582.191 233.167 537.083 322.561 454.125 349.876C371.167 377.192 281.773 332.084 254.458 249.126C227.142 166.168 272.25 76.7733 355.208 49.4582ZM446.706 327.345C517.221 304.127 555.562 228.142 532.345 157.628C509.127 87.1131 433.142 48.7716 362.627 71.9895C292.113 95.2074 253.771 171.193 276.989 241.707C300.207 312.222 376.192 350.563 446.706 327.345Z" fill="url(#paint1_linear_240_4)" fill-opacity="0.3"/>
<path d="M363.959 76.0305C432.241 53.5475 505.821 90.6754 528.304 158.958C550.787 227.241 513.659 300.821 445.377 323.304C377.094 345.787 303.514 308.659 281.031 240.376C258.548 172.094 295.676 98.5135 363.959 76.0305ZM439.27 304.758C497.311 285.648 528.869 223.105 509.759 165.064C490.648 107.024 428.105 75.4655 370.065 94.576C312.025 113.687 280.466 176.23 299.577 234.27C318.687 292.31 381.23 323.869 439.27 304.758Z" fill="url(#paint2_linear_240_4)" fill-opacity="0.3"/>
<path d="M371.249 98.1739C427.302 79.7177 487.703 110.196 506.159 166.249C524.615 222.302 494.137 282.703 438.084 301.159C382.032 319.615 321.63 289.137 303.174 233.084C284.718 177.032 315.196 116.63 371.249 98.1739ZM433.072 285.935C480.717 270.248 506.623 218.906 490.935 171.261C475.248 123.616 423.906 97.71 376.261 113.398C328.616 129.086 302.71 180.427 318.398 228.072C334.086 275.717 385.427 301.623 433.072 285.935Z" fill="url(#paint3_linear_240_4)" fill-opacity="0.3"/>
<path d="M377.509 116.567C423.269 101.5 472.579 126.381 487.646 172.14C502.712 217.9 477.831 267.21 432.072 282.276C386.312 297.343 337.003 272.462 321.936 226.703C306.869 180.943 331.75 131.634 377.509 116.567ZM427.98 269.848C466.875 257.041 488.024 215.128 475.217 176.233C462.41 137.337 420.497 116.188 381.602 128.995C342.706 141.802 321.557 183.715 334.364 222.611C347.171 261.506 389.084 282.655 427.98 269.848Z" fill="url(#paint4_linear_240_4)" fill-opacity="0.3"/>
<path d="M382.55 132.497C419.647 120.283 459.621 140.454 471.836 177.55C484.051 214.647 463.88 254.622 426.783 266.837C389.686 279.051 349.711 258.88 337.497 221.783C325.282 184.687 345.453 144.712 382.55 132.497ZM423.465 256.761C454.998 246.379 472.143 212.4 461.761 180.868C451.378 149.336 417.4 132.19 385.867 142.573C354.335 152.955 337.19 186.934 347.572 218.466C357.955 249.998 391.933 267.144 423.465 256.761Z" fill="url(#paint5_linear_240_4)" fill-opacity="0.3"/>
<path d="M387.167 146.522C416.518 136.858 448.147 152.817 457.811 182.169C467.476 211.52 451.516 243.148 422.165 252.813C392.813 262.477 361.185 246.518 351.521 217.166C341.856 187.815 357.816 156.187 387.167 146.522ZM419.54 244.841C444.489 236.626 458.054 209.742 449.839 184.793C441.625 159.845 414.741 146.279 389.792 154.494C364.843 162.709 351.278 189.593 359.493 214.541C367.707 239.49 394.591 253.056 419.54 244.841Z" fill="url(#paint6_linear_240_4)" fill-opacity="0.3"/>
<path d="M391.115 159.131C413.638 151.715 437.909 163.962 445.325 186.485C452.741 209.008 440.494 233.278 417.971 240.694C395.448 248.11 371.178 235.864 363.762 213.34C356.346 190.817 368.592 166.547 391.115 159.131ZM415.957 234.577C435.101 228.273 445.511 207.643 439.208 188.499C432.904 169.354 412.274 158.945 393.129 165.248C373.985 171.552 363.575 192.182 369.879 211.326C376.182 230.471 396.812 240.881 415.957 234.577Z" fill="url(#paint7_linear_240_4)" fill-opacity="0.3"/>
<path d="M394.211 169.156C411.741 163.384 430.494 172.502 436.098 189.522C441.702 206.542 432.034 225.018 414.505 230.79C396.976 236.561 378.223 227.443 372.619 210.423C367.015 193.404 376.682 174.928 394.211 169.156ZM412.983 226.167C427.883 221.261 436.1 205.556 431.337 191.09C426.573 176.623 410.633 168.872 395.733 173.778C380.834 178.684 372.616 194.389 377.38 208.856C382.143 223.322 398.083 231.073 412.983 226.167Z" fill="url(#paint8_linear_240_4)" fill-opacity="0.3"/>
<path d="M397.254 177.154C409.687 173.06 423.086 179.821 427.18 192.254C431.273 204.688 424.513 218.086 412.079 222.18C399.646 226.274 386.248 219.513 382.154 207.08C378.06 194.646 384.82 181.248 397.254 177.154ZM410.967 218.803C421.536 215.323 427.282 203.935 423.803 193.366C420.323 182.798 408.934 177.051 398.366 180.531C387.797 184.011 382.051 195.399 385.531 205.968C389.01 216.536 400.399 222.283 410.967 218.803Z" fill="url(#paint9_linear_240_4)" fill-opacity="0.3"/>
<defs>
<linearGradient id="paint0_linear_240_4" x1="36.5" y1="416" x2="810" y2="401.5" gradientUnits="userSpaceOnUse">
<stop stop-color="#DA0C4C"/>
<stop offset="1" stop-color="#FA6902"/>
</linearGradient>
<linearGradient id="paint1_linear_240_4" x1="365.186" y1="44.8191" x2="457.655" y2="329.764" gradientUnits="userSpaceOnUse">
<stop offset="0.4375" stop-color="#FF0062" stop-opacity="0.11"/>
<stop offset="1" stop-color="#FE6804"/>
</linearGradient>
<linearGradient id="paint2_linear_240_4" x1="372.172" y1="72.2122" x2="448.282" y2="306.749" gradientUnits="userSpaceOnUse">
<stop offset="0.4375" stop-color="#FF0062" stop-opacity="0.11"/>
<stop offset="1" stop-color="#FE6804"/>
</linearGradient>
<linearGradient id="paint3_linear_240_4" x1="377.991" y1="95.0394" x2="440.469" y2="287.57" gradientUnits="userSpaceOnUse">
<stop offset="0.4375" stop-color="#FF0062" stop-opacity="0.11"/>
<stop offset="1" stop-color="#FE6804"/>
</linearGradient>
<linearGradient id="paint4_linear_240_4" x1="383.013" y1="114.008" x2="434.019" y2="271.182" gradientUnits="userSpaceOnUse">
<stop offset="0.4375" stop-color="#FF0062" stop-opacity="0.11"/>
<stop offset="1" stop-color="#FE6804"/>
</linearGradient>
<linearGradient id="paint5_linear_240_4" x1="387.012" y1="130.423" x2="428.361" y2="257.843" gradientUnits="userSpaceOnUse">
<stop offset="0.4375" stop-color="#FF0062" stop-opacity="0.11"/>
<stop offset="1" stop-color="#FE6804"/>
</linearGradient>
<linearGradient id="paint6_linear_240_4" x1="390.698" y1="144.881" x2="423.414" y2="245.697" gradientUnits="userSpaceOnUse">
<stop offset="0.4375" stop-color="#FF0062" stop-opacity="0.11"/>
<stop offset="1" stop-color="#FE6804"/>
</linearGradient>
<linearGradient id="paint7_linear_240_4" x1="393.824" y1="157.871" x2="418.929" y2="235.234" gradientUnits="userSpaceOnUse">
<stop offset="0.4375" stop-color="#FF0062" stop-opacity="0.11"/>
<stop offset="1" stop-color="#FE6804"/>
</linearGradient>
<linearGradient id="paint8_linear_240_4" x1="396.322" y1="168.183" x2="415.3" y2="226.64" gradientUnits="userSpaceOnUse">
<stop offset="0.4375" stop-color="#FF0062" stop-opacity="0.11"/>
<stop offset="1" stop-color="#FE6804"/>
</linearGradient>
<linearGradient id="paint9_linear_240_4" x1="398.749" y1="176.459" x2="412.608" y2="219.166" gradientUnits="userSpaceOnUse">
<stop offset="0.4375" stop-color="#FF0062" stop-opacity="0.11"/>
<stop offset="1" stop-color="#FE6804"/>
</linearGradient>
</defs>
</svg>
