<svg width="219" height="432" viewBox="0 0 219 432" fill="none" xmlns="http://www.w3.org/2000/svg">
<path d="M78.9101 294.867C35.3293 219.178 61.3587 122.49 137.048 78.9095C212.738 35.3288 309.425 61.3581 353.006 137.048C396.587 212.737 370.558 309.425 294.868 353.006C219.178 396.586 122.491 370.557 78.9101 294.867ZM332.449 148.884C295.405 84.548 213.221 62.4231 148.885 99.4667C84.5486 136.51 62.4236 218.695 99.4673 283.031C136.511 347.367 218.695 369.492 283.032 332.448C347.368 295.405 369.493 213.22 332.449 148.884Z" fill="url(#paint0_linear_245_2)" fill-opacity="0.3"/>
<path d="M103.153 280.908C67.2821 218.608 88.7067 139.025 151.006 103.154C213.306 67.2825 292.889 88.7071 328.761 151.007C364.632 213.307 343.207 292.89 280.907 328.761C218.608 364.632 139.024 343.207 103.153 280.908ZM311.84 160.749C281.35 107.795 213.704 89.5837 160.749 120.074C107.794 150.565 89.5833 218.21 120.074 271.165C150.564 324.12 218.21 342.331 271.165 311.84C324.119 281.35 342.33 213.704 311.84 160.749Z" fill="url(#paint1_linear_245_2)" fill-opacity="0.3"/>
<path d="M123.357 269.275C93.911 218.134 111.498 152.804 162.64 123.358C213.782 93.9112 279.111 111.499 308.558 162.64C338.004 213.782 320.417 279.111 269.275 308.558C218.133 338.004 152.804 320.417 123.357 269.275ZM294.668 170.638C269.638 127.167 214.108 112.218 170.638 137.248C127.167 162.277 112.218 217.807 137.247 261.278C162.277 304.748 217.807 319.697 261.277 294.668C304.748 269.638 319.697 214.108 294.668 170.638Z" fill="url(#paint2_linear_245_2)" fill-opacity="0.3"/>
<path d="M140.097 259.413C116.058 217.663 130.416 164.33 172.166 140.291C213.916 116.252 267.249 130.61 291.288 172.36C315.327 214.11 300.969 267.443 259.219 291.482C217.469 315.521 164.136 301.163 140.097 259.413ZM279.949 178.889C259.516 143.401 214.183 131.197 178.695 151.63C143.208 172.063 131.004 217.396 151.437 252.884C171.87 288.371 217.203 300.575 252.69 280.142C288.178 259.709 300.382 214.376 279.949 178.889Z" fill="url(#paint3_linear_245_2)" fill-opacity="0.3"/>
<path d="M154.674 251.244C135.186 217.397 146.826 174.161 180.672 154.673C214.518 135.185 257.755 146.824 277.243 180.671C296.731 214.517 285.091 257.753 251.245 277.242C217.398 296.73 174.162 285.09 154.674 251.244ZM268.05 185.964C251.485 157.194 214.734 147.301 185.965 163.865C157.195 180.43 147.302 217.181 163.867 245.951C180.432 274.72 217.182 284.614 245.952 268.049C274.721 251.484 284.615 214.733 268.05 185.964Z" fill="url(#paint4_linear_245_2)" fill-opacity="0.3"/>
<path d="M167.471 243.877C152.052 217.097 161.261 182.888 188.041 167.469C214.82 152.05 249.029 161.259 264.448 188.039C279.867 214.818 270.658 249.027 243.878 264.446C217.099 279.866 182.89 270.656 167.471 243.877ZM257.175 192.226C244.069 169.464 214.991 161.636 192.228 174.742C169.466 187.848 161.638 216.926 174.744 239.689C187.85 262.451 216.928 270.279 239.691 257.173C262.453 244.067 270.281 214.989 257.175 192.226Z" fill="url(#paint5_linear_245_2)" fill-opacity="0.3"/>
<path d="M179.015 237.453C167.183 216.903 174.25 190.653 194.799 178.821C215.349 166.989 241.599 174.055 253.432 194.605C265.264 215.155 258.197 241.405 237.647 253.237C217.097 265.07 190.847 258.003 179.015 237.453ZM247.85 197.819C237.793 180.352 215.48 174.345 198.013 184.402C180.546 194.459 174.539 216.772 184.596 234.239C194.653 251.707 216.966 257.713 234.434 247.656C251.901 237.599 257.908 215.286 247.85 197.819Z" fill="url(#paint6_linear_245_2)" fill-opacity="0.3"/>
<path d="M188.204 232.386C178.995 216.393 184.118 196.18 199.647 187.239C215.175 178.298 235.229 184.015 244.437 200.008C253.646 216.002 248.523 236.215 232.995 245.156C217.466 254.097 197.413 248.38 188.204 232.386ZM240.22 202.437C232.393 188.842 215.347 183.983 202.148 191.583C188.949 199.182 184.594 216.364 192.422 229.958C200.249 243.552 217.294 248.412 230.494 240.812C243.693 233.212 248.047 216.031 240.22 202.437Z" fill="url(#paint7_linear_245_2)" fill-opacity="0.3"/>
<path d="M195.419 227.785C188.887 216.441 192.788 201.95 204.132 195.418C215.476 188.886 229.968 192.787 236.499 204.132C243.031 215.476 239.13 229.967 227.786 236.499C216.442 243.03 201.95 239.129 195.419 227.785ZM233.418 205.906C227.866 196.263 215.549 192.947 205.906 198.499C196.264 204.051 192.948 216.369 198.5 226.011C204.052 235.654 216.369 238.97 226.012 233.418C235.654 227.866 238.97 215.548 233.418 205.906Z" fill="url(#paint8_linear_245_2)" fill-opacity="0.3"/>
<defs>
<linearGradient id="paint0_linear_245_2" x1="72.3427" y1="286.038" x2="332.596" y2="137.673" gradientUnits="userSpaceOnUse">
<stop offset="0.4375" stop-color="#FF0062" stop-opacity="0.11"/>
<stop offset="1" stop-color="#FE6804"/>
</linearGradient>
<linearGradient id="paint1_linear_245_2" x1="97.7477" y1="273.64" x2="311.961" y2="151.521" gradientUnits="userSpaceOnUse">
<stop offset="0.4375" stop-color="#FF0062" stop-opacity="0.11"/>
<stop offset="1" stop-color="#FE6804"/>
</linearGradient>
<linearGradient id="paint2_linear_245_2" x1="118.92" y1="263.309" x2="294.767" y2="163.063" gradientUnits="userSpaceOnUse">
<stop offset="0.4375" stop-color="#FF0062" stop-opacity="0.11"/>
<stop offset="1" stop-color="#FE6804"/>
</linearGradient>
<linearGradient id="paint3_linear_245_2" x1="136.475" y1="254.543" x2="280.03" y2="172.705" gradientUnits="userSpaceOnUse">
<stop offset="0.4375" stop-color="#FF0062" stop-opacity="0.11"/>
<stop offset="1" stop-color="#FE6804"/>
</linearGradient>
<linearGradient id="paint4_linear_245_2" x1="151.737" y1="247.295" x2="268.116" y2="180.95" gradientUnits="userSpaceOnUse">
<stop offset="0.4375" stop-color="#FF0062" stop-opacity="0.11"/>
<stop offset="1" stop-color="#FE6804"/>
</linearGradient>
<linearGradient id="paint5_linear_245_2" x1="165.147" y1="240.753" x2="257.227" y2="188.26" gradientUnits="userSpaceOnUse">
<stop offset="0.4375" stop-color="#FF0062" stop-opacity="0.11"/>
<stop offset="1" stop-color="#FE6804"/>
</linearGradient>
<linearGradient id="paint6_linear_245_2" x1="177.232" y1="235.056" x2="247.89" y2="194.775" gradientUnits="userSpaceOnUse">
<stop offset="0.4375" stop-color="#FF0062" stop-opacity="0.11"/>
<stop offset="1" stop-color="#FE6804"/>
</linearGradient>
<linearGradient id="paint7_linear_245_2" x1="186.823" y1="230.517" x2="240.213" y2="200.072" gradientUnits="userSpaceOnUse">
<stop offset="0.4375" stop-color="#FF0062" stop-opacity="0.11"/>
<stop offset="1" stop-color="#FE6804"/>
</linearGradient>
<linearGradient id="paint8_linear_245_2" x1="194.434" y1="226.462" x2="233.44" y2="204.225" gradientUnits="userSpaceOnUse">
<stop offset="0.4375" stop-color="#FF0062" stop-opacity="0.11"/>
<stop offset="1" stop-color="#FE6804"/>
</linearGradient>
</defs>
</svg>
