<svg width="200" height="200" viewBox="0 0 130 130" fill="none" xmlns="http://www.w3.org/2000/svg"><circle cx="65" cy="65" r="65" fill="#FFC100"/><path fill-rule="evenodd" clip-rule="evenodd" d="M40.263 43.682C27.203 52.3 16.315 59.7 16.07 60.125c-.497.863 1.793 5.171 2.746 5.165.295-.001 3.237-1.772 6.539-3.935l6.002-3.932.126 20.321c.086 13.934.293 20.544.659 21.026.576.76 4.12.95 5.092.274.456-.317.625-5.786.72-23.26l.126-22.848 12.485-8.3c6.867-4.564 12.944-8.552 13.504-8.861.882-.486 2.715.549 13.686 7.734 6.966 4.563 13.044 8.647 13.507 9.075.776.719.84 2.508.84 23.515 0 25.282-.273 23.375 3.341 23.375 1.003 0 2.064-.317 2.357-.704.365-.482.573-7.092.659-21.026l.126-20.322 6.002 3.933c3.301 2.163 6.244 3.934 6.539 3.935.295.002 1.134-.985 1.864-2.193.983-1.628 1.205-2.411.854-3.021-.7-1.215-47.747-32.093-48.873-32.076-.528.007-11.647 7.065-24.708 15.682zm17.265 10.1c-1.857.798-2.859 2.577-2.87 5.096-.015 3.091 1.659 4.838 4.637 4.838 1.16 0 2.63-.374 3.268-.831 2.918-2.095 2.37-7.41-.92-8.916-1.925-.88-2.447-.904-4.115-.187zm8.42 7.38c-.7.909-1.798 2.794-2.444 4.188-1.588 3.433-2.395 3.813-7.17 3.378-3.32-.303-4.071-.223-4.737.507-1.901 2.08-.384 3.183 4.954 3.598 4.764.37 6.69-.138 8.374-2.208.504-.618 1.08-1.124 1.282-1.124.454 0 2.077 5.223 1.739 5.594-.135.147-.942-.127-1.793-.61-1.275-.721-1.896-.775-3.526-.305-1.088.315-2.943.632-4.123.707-1.83.115-2.303.392-3.216 1.88-1.17 1.907-2.827 9.099-2.386 10.355.192.549.99.783 2.668.783 2.393 0 2.395 0 2.697-1.972.44-2.873 1.193-5.485 1.971-6.844l.683-1.191 2.745 1.584c2.482 1.433 3.173 1.585 7.21 1.586 4.212.001 4.531-.078 5.643-1.39 1.543-1.824 1.535-4.356-.032-9.467-2.454-8.004-4.312-10.701-7.37-10.701-1.54 0-2.14.312-3.17 1.652zm-.16 22.642c-.318.347-.577 1.997-.577 3.668v3.037l-8.043.144-8.044.144-.142 3.861c-.088 2.394.072 4.143.42 4.601.46.608 3.231.74 15.419.74 9.764 0 15.193-.195 15.832-.57.933-.547.96-.882.64-8.019-.183-4.097-.433-7.626-.553-7.843-.384-.69-14.308-.469-14.953.237z" fill="#0A7CA5"/></svg>