<svg viewBox="0 0 232.23 63.4" xmlns="http://www.w3.org/2000/svg"><linearGradient id="a" gradientUnits="userSpaceOnUse" x2="50.56" y1="31.4" y2="31.4"><stop offset="0" stop-color="#e10067"/><stop offset=".5" stop-color="#e10b49"/><stop offset="1" stop-color="#ee6d0d"/></linearGradient><path d="M11.32 5.92L27.28 31.4 14.93 51.12h-1.7L25.58 31.4 14.95 14.39H0L10.63 31.4.11 48.35h6.61l10.53-16.96-7.02-11.2h1.71l7.01 11.21L3 56.88h14.95L33.9 31.4 21.55 11.68h1.71L35.61 31.4 24.98 48.36h14.95L50.56 31.4 39.9 14.39h-6.63L43.93 31.4l-7.01 11.2h-1.71l7.02-11.2L26.27 5.92z" fill="url(#a)"/><g fill="#87295f"><path d="M68.58 40.47a20.27 20.27 0 0 0 0 20.49l-1.37.75a20.29 20.29 0 0 1 0-22zM74.94 47.23h1.79l-2.94 11.28h-2l-2.91-11.28h1.79l2.14 9.24zM85 58.51h-1.5l-.21-.82a4.49 4.49 0 0 1-2.75 1.06c-2.12 0-2.82-1.44-2.82-3.36 0-2.35 1-3.29 3-3.29h2.38V50c0-1.13-.52-1.41-1.65-1.41a8.13 8.13 0 0 0-2.84.56l-.31-1.5a8.45 8.45 0 0 1 3.46-.65c2.11 0 3.22.7 3.22 2.77zm-1.85-4.91h-2.07c-1.29 0-1.58.61-1.58 1.79s.31 1.85 1.51 1.85a4.09 4.09 0 0 0 2.14-.65zM87.33 58.51V42.39l1.83-.26v16.38zM99.13 55c0 2.49-1.53 3.76-4.07 3.76a11.32 11.32 0 0 1-3.31-.45V42.39l1.83-.26v5.76a5.17 5.17 0 0 1 2.87-.89c1.74 0 2.68 1 2.68 3zm-1.84-4.8c0-1.1-.4-1.57-1.43-1.57a4.56 4.56 0 0 0-2.28.66v7.8a8.66 8.66 0 0 0 1.5.12c1.55 0 2.21-.76 2.21-2.14zM102.84 53.53v1.41c0 1.62.66 2.28 2.23 2.28a7 7 0 0 0 2.66-.52l.28 1.46a8.51 8.51 0 0 1-3.13.59c-2.51 0-3.87-1.39-3.87-3.83v-4.19c0-2.6 1.5-3.73 3.64-3.73 2.44 0 3.41 1.36 3.41 3.83v2.7zm3.5-2.91c0-1.32-.31-2.12-1.67-2.12-1.2 0-1.83.61-1.83 2V52h3.5zM115.51 58.51v-8.69c0-.75-.33-1.11-1.13-1.11a6 6 0 0 0-2.45.62v9.18h-1.83V47.23h1.55l.17.83A5.65 5.65 0 0 1 115 47a2.08 2.08 0 0 1 2.35 2.3v9.21zM126.62 58.51h-1.48l-.21-.82a4.46 4.46 0 0 1-2.75 1.06c-2.12 0-2.82-1.44-2.82-3.36 0-2.35 1-3.29 3-3.29h2.38V50c0-1.13-.52-1.41-1.65-1.41a8.13 8.13 0 0 0-2.84.56l-.31-1.5a8.45 8.45 0 0 1 3.46-.65c2.12 0 3.22.7 3.22 2.77zm-1.83-4.91h-2.07c-1.29 0-1.57.61-1.57 1.79s.3 1.85 1.5 1.85a4.09 4.09 0 0 0 2.14-.65zM128.62 47.23h6.25v1.55L130.38 57H135v1.55h-6.5V57l4.5-8.22h-4.37zM137 45.28v-2.89h1.83v2.89zm0 13.23V47.23h1.83v11.28zM146.78 58.51v-8.69c0-.75-.32-1.11-1.12-1.11a6 6 0 0 0-2.45.62v9.18h-1.83V47.23h1.55l.16.83a5.71 5.71 0 0 1 3.18-1.06 2.08 2.08 0 0 1 2.35 2.3v9.21zM152.56 53.53v1.41c0 1.62.66 2.28 2.24 2.28a6.88 6.88 0 0 0 2.65-.52l.28 1.46a8.41 8.41 0 0 1-3.12.59c-2.52 0-3.88-1.39-3.88-3.83v-4.19c0-2.6 1.5-3.73 3.64-3.73 2.45 0 3.41 1.36 3.41 3.83v2.7zm3.51-2.91c0-1.32-.31-2.12-1.67-2.12-1.2 0-1.84.61-1.84 2V52h3.51zM160.53 39.71a20.29 20.29 0 0 1 0 22l-1.36-.71a20.33 20.33 0 0 0 0-20.49zM169.34 55.13v-4.51c0-2.21 1.13-3.62 3.46-3.62a7.84 7.84 0 0 1 2.49.4l-.29 1.48a6.9 6.9 0 0 0-2-.31c-1.34 0-1.88.76-1.88 2v4.56c0 1.27.54 2 1.88 2a7.28 7.28 0 0 0 2-.3l.26 1.48a7.84 7.84 0 0 1-2.49.4c-2.3.04-3.43-1.37-3.43-3.58zM183.91 58.51h-1.48l-.21-.82a4.46 4.46 0 0 1-2.75 1.06c-2.11 0-2.82-1.44-2.82-3.36 0-2.35 1-3.29 3.06-3.29h2.37V50c0-1.13-.52-1.41-1.64-1.41a8.19 8.19 0 0 0-2.85.56l-.3-1.5a8.4 8.4 0 0 1 3.4-.68c2.12 0 3.22.7 3.22 2.77zm-1.83-4.91H180c-1.29 0-1.57.61-1.57 1.79s.3 1.85 1.5 1.85a4.09 4.09 0 0 0 2.14-.65zM193.64 55.43a3 3 0 0 1-3.34 3.32 7 7 0 0 1-2.2-.33v4.72l-1.84.26V47.23h1.51l.19.83a4.94 4.94 0 0 1 3-1.06c1.9 0 2.7 1.06 2.7 3zm-1.83-5.31c0-1-.35-1.52-1.32-1.52a4.54 4.54 0 0 0-2.39.73v7.54a6.42 6.42 0 0 0 1.88.28c1.31 0 1.83-.56 1.83-1.76zM198.22 58.75a8.37 8.37 0 0 1-2.75-.47l.29-1.48a6.85 6.85 0 0 0 2.37.42c1.41 0 1.81-.59 1.81-1.64s-.23-1.51-1.79-2c-2.25-.71-2.82-1.46-2.82-3.48 0-2.23 1.32-3.1 3.46-3.1a7.05 7.05 0 0 1 2.7.47l-.26 1.5a7.28 7.28 0 0 0-2.39-.42c-1.41 0-1.7.52-1.7 1.53s.22 1.29 1.77 1.81c2.09.7 2.84 1.34 2.84 3.5s-1.29 3.36-3.53 3.36zM205.34 47.23V56c0 .78.36 1.13 1.16 1.13a5.3 5.3 0 0 0 2.32-.66v-9.24h1.83v11.28h-1.55l-.18-.82a5.41 5.41 0 0 1-3.08 1.06 2.06 2.06 0 0 1-2.33-2.31v-9.21zM213.24 58.51V42.39l1.83-.26v16.38zM219.14 53.53v1.41c0 1.62.66 2.28 2.23 2.28a7 7 0 0 0 2.63-.52l.28 1.46a8.51 8.51 0 0 1-3.13.59c-2.51 0-3.88-1.39-3.88-3.83v-4.19c0-2.6 1.51-3.73 3.65-3.73 2.44 0 3.41 1.36 3.41 3.83v2.7zm3.5-2.91c0-1.32-.31-2.12-1.67-2.12-1.2 0-1.83.61-1.83 2V52h3.5zM228.7 58.75a8.37 8.37 0 0 1-2.75-.47l.29-1.48a6.8 6.8 0 0 0 2.37.42c1.41 0 1.81-.59 1.81-1.64s-.24-1.51-1.79-2c-2.25-.71-2.82-1.46-2.82-3.48 0-2.23 1.32-3.1 3.46-3.1a7.05 7.05 0 0 1 2.7.47l-.26 1.5a7.29 7.29 0 0 0-2.4-.42c-1.41 0-1.69.52-1.69 1.53s.21 1.29 1.76 1.81c2.1.7 2.85 1.34 2.85 3.5s-1.29 3.36-3.53 3.36z"/></g><path d="M68.62 14.39v22.13h-4V14.39zM74.68 36.52V14.39h4L90 30.56V14.39h4v22.13h-4l-11.46-16.4v16.4zM117.1 35.41a15.53 15.53 0 0 1-6.45 1.2q-11.4 0-11.44-11.51 0-10.94 11.56-11a17.44 17.44 0 0 1 6.33 1.06v3.72a14.71 14.71 0 0 0-6-1.22q-7.75 0-7.74 7.39 0 8 7.35 8a9.72 9.72 0 0 0 2.47-.39V26.2h3.94zM122.4 36.52V14.39h9.79q6.6 0 6.61 5.92 0 4-5.11 6.67l6.85 9.54h-5l-6.59-9.6V25c3.81-.68 5.72-2.21 5.71-4.59 0-1.64-.9-2.45-2.68-2.44h-5.41v18.55zM158.64 14.39v3.54h-10.77v5.61h10.28v3.65h-10.28V33h11v3.49h-15v-22.1zM179.67 14.39V18l-11.41 15h11.46v3.47h-15.95v-3.42l11.9-15H164v-3.66zM200 14.39V18l-11.41 15h11.46v3.47h-16v-3.42L196 18h-11.63v-3.61zM207.08 36.52H203l9.07-22.13h4.29l9.4 22.13h-4.29l-2.47-6h-7.15L213.2 27h4.33l-3.41-8.33zM226 20.89a3.06 3.06 0 0 1-3.16-3.26 3.17 3.17 0 1 1 6.34 0 3.07 3.07 0 0 1-3.18 3.26m0-6.18a2.72 2.72 0 0 0-2.79 2.92 2.8 2.8 0 1 0 5.6 0 2.74 2.74 0 0 0-2.81-2.92m-1 4.62v-3.61h1c.75 0 1.24.39 1.24 1a1 1 0 0 1-.75 1l1.06 1.48-.55.13-1.07-1.54h-.39v1.5zm.95-3.14h-.46v1.22h.45c.46 0 .75-.21.75-.61s-.26-.61-.74-.61" fill="#1c1b1a"/><path d="M68.09 7.86A3.66 3.66 0 0 1 64.24 4a3.77 3.77 0 0 1 3.86-4 3.64 3.64 0 0 1 3.84 3.9 3.78 3.78 0 0 1-3.85 3.96zm0-6.64a2.39 2.39 0 0 0-2.38 2.68 2.4 2.4 0 1 0 4.77.1 2.43 2.43 0 0 0-2.42-2.78zM78.46.18h1.39v7.57h-1.56L74.7 2.23v5.45h-1.39V.18h1.6l3.55 5.46zM87.1 1.86a3.46 3.46 0 0 0-2-.6 2.38 2.38 0 0 0-2.41 2.64 2.41 2.41 0 0 0 2.46 2.7 3.62 3.62 0 0 0 2-.68l.28 1.35a5 5 0 0 1-2.39.59A3.63 3.63 0 0 1 81.22 4a3.7 3.7 0 0 1 3.91-4 5.21 5.21 0 0 1 2.42.59zM88.86 7.68V.18H94v1.24h-3.7V3.3h3v1.23h-3v1.91H94v1.24zM94.77 5.37V4.16h3.38v1.21zM101.81 7.68h-2.45V.18h2.54c2.56 0 4 1.46 4 3.69s-1.43 3.81-4.09 3.81zm0-6.26h-1v5h1.06A2.3 2.3 0 0 0 104.48 4c0-1.75-.94-2.58-2.66-2.58zM113.64 7.68h-1.48l-.62-1.78h-3l-.61 1.78h-1.48l2.74-7.5h1.77zM110 1.44l-1.1 3.25h2.27zM114.58 7.68V.18H116v7.5zM117.78 7.68V.18h1.47v6.21h3.38v1.29zM126.24 4.77v2.91h-1.45V4.76L122.17.18h1.59l1.77 3.24 1.74-3.24h1.57z" fill="#87295f"/></svg>