<svg width="160" height="160" fill="none" xmlns="http://www.w3.org/2000/svg"><path fill-rule="evenodd" clip-rule="evenodd" d="M84.182 10.555c-.76.758-.765 2.118-.01 2.994l.547.635h6.196l.547-.635c.755-.876.75-2.236-.01-2.994-.535-.535-.667-.555-3.635-.555-2.967 0-3.1.02-3.635.555zm12.28-.299c-.56.325-1.061 1.579-.9 2.252.07.3 1.039 1.467 2.15 2.594l2.021 2.05-1.95 3.378c-1.571 2.72-1.93 3.51-1.844 4.056.128.801 4.462 8.34 5.267 9.158.556.565.557.566 5.637.634 4.237.057 5.194.01 5.759-.281.487-.251 1.138-1.148 2.309-3.178.898-1.556 1.719-2.828 1.826-2.828.273 0 5.181 4.76 5.181 5.024 0 .119-.834 1.657-1.853 3.42-1.21 2.088-1.856 3.444-1.859 3.897-.002.467.649 1.823 1.988 4.136 1.354 2.34 1.924 3.529 1.781 3.715-.116.15-3.776 4.649-8.133 9.997-10.535 12.932-9.824 11.997-9.824 12.925 0 1.069.351 1.641 1.229 2.007.812.339 1.613.23 2.23-.303.22-.19 4.451-5.314 9.403-11.386l9.004-11.04 3.445-.003 3.445-.002 2.899 3.824c1.595 2.103 3.134 3.934 3.42 4.07 1.344.638 2.861-.07 3.121-1.455.184-.982-.097-1.469-3.196-5.523-1.304-1.707-2.371-3.185-2.371-3.285 0-.1.866-1.691 1.926-3.536 1.373-2.392 1.925-3.573 1.925-4.118 0-.543-.555-1.734-1.925-4.13-1.06-1.852-1.926-3.448-1.926-3.546 0-.099 1.219-1.796 2.71-3.771 1.49-1.976 2.776-3.857 2.857-4.181.318-1.263-.848-2.616-2.253-2.616-.857 0-1.617.787-4.447 4.608l-2.606 3.517-3.605.008-3.605.008-1.38-1.288c-6.325-5.907-6.438-6.038-8.835-10.223-1.9-3.316-2.36-3.966-2.995-4.231-.549-.23-1.888-.313-4.971-.313h-4.219l-2.356-2.149c-2.112-1.926-2.444-2.147-3.208-2.141-.47.004-1.041.116-1.271.25zm44.17 5.189c-.762.903-.777 1.997-.04 2.853l.547.634h12.541l.547-.634c.767-.89.745-2.158-.051-2.953l-.597-.596h-12.36l-.587.696zm-28.651 6.088c.844 1.43 1.539 2.687 1.544 2.793.005.106-.679 1.4-1.52 2.876l-1.529 2.682-3.32.008-3.319.008-1.533-2.635c-.844-1.45-1.534-2.747-1.534-2.885 0-.137.695-1.447 1.544-2.91l1.544-2.662 3.294.062 3.294.062 1.535 2.6zm35.384.949c-.274.132-.663.587-.865 1.01-.299.63-.319.915-.108 1.554.433 1.308.868 1.462 4.144 1.462h2.913l.662-.661c.49-.49.662-.876.662-1.487 0-.612-.172-.998-.662-1.488l-.662-.66-2.793.015c-1.537.008-3.018.123-3.291.255zm-78.394 5.527c-.52.184-1.407.74-1.97 1.234-3.665 3.22-2.797 9.058 1.649 11.094l1.154.528V61.03L56.107 79.97c-9.777 13.52-13.812 19.273-14.101 20.107-1.558 4.493 1.175 9.524 5.978 11.004 1.446.446 2.06.455 32.016.455 29.955 0 30.57-.009 32.016-.455 3.423-1.055 6.007-4.073 6.409-7.486.171-1.448-.319-3.65-1.096-4.928-.452-.743-12.078-16.93-14.226-19.808-.464-.622-3.558-4.885-6.875-9.474l-6.032-8.344V40.865l1.154-.528c4.443-2.035 5.314-7.875 1.653-11.09-1.826-1.605-1.875-1.61-13.1-1.59-8.204.014-10.155.077-10.932.352zm20.617 4.179c1.43.73 1.738 2.5.626 3.609-.643.642-.728.66-2.912.66-2.643 0-3.567.264-4.023 1.145-.79 1.523-.022 3.016 1.69 3.29l.922.146v21.337l.643 1.005c.354.553 2.945 4.178 5.757 8.056 2.813 3.877 5.055 7.108 4.984 7.18-.072.07-6.035.13-13.252.13H70.902l-.663.66c-1.032 1.03-.733 2.77.578 3.366.44.2 4.385.272 15.255.277l14.661.008 6.117 8.463c3.365 4.654 6.346 8.849 6.624 9.32.591 1.002.682 2.707.194 3.639-.407.779-1.386 1.686-2.399 2.225-.763.405-1.968.421-31.269.421s-30.506-.016-31.269-.421c-1.013-.539-1.992-1.446-2.4-2.225-.413-.79-.41-2.517.008-3.322.18-.347 6.212-8.763 13.404-18.701 7.192-9.939 13.366-18.523 13.72-19.076l.646-1.005V41.038l.922-.147c1.712-.273 2.48-1.767 1.69-3.29-.456-.88-1.38-1.143-4.023-1.143-2.184 0-2.269-.02-2.912-.661-1.096-1.094-.814-2.832.584-3.6.639-.35 18.533-.359 19.218-.01zm44.623 5.375c.841 1.471 1.529 2.778 1.529 2.904 0 .126-.704 1.438-1.564 2.915l-1.564 2.687h-6.47l-1.631-2.803-1.63-2.802 1.615-2.793 1.614-2.792 3.286.004 3.285.004 1.53 2.676zm11.97 17.345c-.948.795-.993 2.224-.1 3.115.592.591.627.596 3.982.596h3.386l.662-.66c.49-.49.662-.876.662-1.488s-.172-.998-.662-1.487l-.662-.661h-3.286c-3.204 0-3.303.014-3.982.585zM41.367 78.19c-4.209.564-6.203 1.028-6.72 1.563-.263.274-7.042 11.762-15.063 25.53C7.729 125.63 5 130.465 5 131.118c0 .587.179.982.662 1.465.764.762.865.771 3.815.333 5.871-.873 10.057-1.124 18.861-1.133 9.17-.009 11.553.14 17.9 1.119 3.799.586 8.226 1.48 8.075 1.63-.05.051-1.506-.07-3.234-.27-6.949-.805-17.046-.807-25.125-.005-8.287.822-18.975 2.88-20.063 3.862-.622.563-.777 1.714-.342 2.553.712 1.374 1.276 1.414 5.626.393 5.259-1.234 11.638-2.18 18.468-2.738 4.039-.33 13.395-.408 16.142-.135 1.383.138 1.293.157-1.472.318-11.04.645-23.77 3.286-34.731 7.208-3.495 1.25-4.355 1.869-4.355 3.129 0 .779.919 1.933 1.694 2.127.337.084 1.09-.05 1.87-.333 10.38-3.765 20.138-6.086 30.99-7.371 4.8-.568 17.294-.57 21.526-.003 5.984.801 12.19 2.328 15.974 3.929 1.06.449 2.283.816 2.719.816.436 0 1.66-.367 2.719-.816 3.823-1.617 9.92-3.108 16.088-3.932 4.322-.578 16.738-.575 21.639.005 10.679 1.264 20.259 3.56 30.763 7.372.78.283 1.533.417 1.87.333.775-.194 1.694-1.348 1.694-2.127 0-1.26-.86-1.879-4.355-3.129-10.961-3.922-23.691-6.563-34.731-7.208-2.765-.161-2.855-.18-1.472-.318 2.747-.273 12.103-.195 16.142.135 6.83.558 13.209 1.504 18.468 2.738 4.35 1.021 4.914.981 5.626-.393.435-.839.28-1.99-.342-2.553-1.088-.982-11.776-3.04-20.063-3.862-8.079-.802-18.177-.8-25.125.005-1.728.2-3.183.321-3.234.27-.151-.15 4.276-1.044 8.074-1.63 6.348-.979 8.73-1.128 17.901-1.119 8.804.009 12.99.26 18.861 1.133 2.95.438 3.051.429 3.815-.333.483-.483.662-.878.662-1.465 0-.653-2.729-5.488-14.584-25.835-8.021-13.768-14.798-25.255-15.06-25.526-.535-.555-2.522-1.008-6.905-1.572-3.394-.437-4.568-.434-5.253.013-1.16.76-1.185 2.806-.042 3.553.273.18 1.702.448 3.212.603 2.757.283 5.939.775 6.109.943.176.176 26.165 44.835 26.115 44.876-.027.023-1.528-.101-3.335-.275-8.045-.775-20-.76-27.417.035-14.331 1.534-26.209 5.625-34.271 11.802l-1.303.998V129.56c0-7.595-.08-11.404-.251-11.893-.261-.748-1.187-1.383-2.015-1.383-.828 0-1.754.635-2.015 1.383-.17.489-.25 4.298-.25 11.893v11.173l-1.304-.998c-8.062-6.177-19.94-10.268-34.27-11.802-7.48-.801-19.265-.815-27.418-.033-1.807.173-3.308.296-3.335.273-.05-.041 25.94-44.7 26.115-44.876.175-.174 3.454-.675 6.252-.955 2.57-.257 2.852-.33 3.425-.903.875-.874.86-2.041-.038-2.937-.6-.599-.798-.659-2.096-.638-.788.013-2.453.16-3.699.326z" fill="url(#paint0_linear_242_26)"/><defs><linearGradient id="paint0_linear_242_26" x1="16.398" y1="40.091" x2="155.453" y2="177.322" gradientUnits="userSpaceOnUse"><stop stop-color="#D50054"/><stop offset="1" stop-color="#FF6B00"/></linearGradient></defs></svg>