<svg width="200" height="200" viewBox="0 0 130 130" fill="none" xmlns="http://www.w3.org/2000/svg"><circle cx="65" cy="65" r="65" fill="#FFC100"/><path fill-rule="evenodd" clip-rule="evenodd" d="M55.914 22.97c-2.95 1.558-4.165 3.695-4.165 7.325 0 3.338.778 4.892 3.444 6.88 1.101.82 2.127 1.031 5.028 1.031h3.646l-.684 1.938c-.848 2.403-.839 4.504.029 6.937.368 1.032.61 1.875.538 1.875-.072 0-1.394-.578-2.939-1.286-5.38-2.463-10.745-2.044-15.916 1.242-4.212 2.676-4.774 3.91-9.37 20.598a6433.295 6433.295 0 0 1-6.855 24.696C27.202 99.431 26 104.207 26 104.82c0 .623.526 1.458 1.195 1.897 1.03.675 3.214.763 15.79.636 13.925-.14 14.63-.193 15.337-1.147.642-.863.694-3.67.389-20.588l-.353-19.59 1.739-.726c4.164-1.74 3.902-1.943 3.902 3.02 0 2.782.223 4.658.6 5.034.33.33 1.554.6 2.72.6 1.167 0 2.225.17 2.353.376.128.207-.951 6.28-2.397 13.496-2.421 12.074-2.736 13.203-3.953 14.16-3.231 2.542-.006 6.939 3.653 4.981 1.186-.635 1.697-2.749.953-3.941-.466-.746-.334-2.226.633-7.131l1.22-6.19 13.037-.134 13.037-.133 1.326 5.633c1.456 6.182 1.562 7.173.818 7.633-.83.513-.563 3.039.415 3.923 1.154 1.045 3.275 1.066 4.3.042 1.148-1.149 1.012-3.999-.233-4.871-.813-.569-1.615-3.297-3.995-13.57-1.639-7.071-3.107-13.063-3.263-13.315-.156-.253-3.65-.459-7.765-.459h-7.482l.819-1.25c.758-1.158.758-1.342 0-2.5-.796-1.214-.986-1.25-6.596-1.25h-5.775l.106-6.625c.058-3.643-.055-7.214-.25-7.935l-.357-1.31 2.904.98c3.317 1.12 5.69.94 9.064-.684 2.788-1.343 5.459-4.841 5.89-7.715.355-2.37 1.309-2.91 2.2-1.244.735 1.373.643 2.567-.278 3.584-.737.814-.721.86.207.617 1.788-.467 3.189-2.438 3.189-4.486 0-1.493-.332-2.195-1.558-3.29-.856-.765-2.066-1.392-2.686-1.392-.783 0-1.425-.551-2.1-1.802-1.349-2.506-4.379-4.962-7.038-5.707-2.588-.724-6.478-.4-8.648.723l-1.484.768.501-1.816c.998-3.614-1.513-8.228-5.244-9.635-2.111-.796-4.871-.604-6.928.483zM93.457 78.83c.779 2.94 1.517 6.315 1.53 7 .009.484-2.777.625-12.3.625H70.373l.301-1.505c.166-.829.57-2.966.899-4.75l.598-3.245H92.96l.497 1.875z" fill="#0A7CA5"/></svg>