<svg width="160" height="160" fill="none" xmlns="http://www.w3.org/2000/svg"><path fill-rule="evenodd" clip-rule="evenodd" d="M18.462 14.298c-4.093 1.104-7.57 4.434-8.916 8.54L9 24.501v84.03l.546 1.664c1.237 3.773 4.042 6.711 7.865 8.238l1.364.545 20.914.114 20.914.113.06 7.762c.057 7.475.041 7.811-.431 9.073-.597 1.592-2.134 3.304-3.716 4.139l-1.142.602-9.434.113c-10.121.122-10.129.123-10.668 1.304-.526 1.155-.104 2.356 1.016 2.887.661.313 5.28.351 42.558.351 30.018 0 42.021-.071 42.539-.251.752-.262 1.391-1.19 1.391-2.02 0-.658-.581-1.721-1.071-1.958-.223-.108-4.652-.248-9.84-.311l-9.434-.115-1.146-.605c-1.403-.74-2.939-2.364-3.578-3.784-.382-.849-.504-1.693-.607-4.206-.127-3.092-.14-3.154-.765-3.691-.893-.767-2.168-.744-2.966.053-.59.588-.6.65-.6 3.723 0 3.573.355 5.12 1.68 7.317l.788 1.306H78.85c-15.583 0-16.37-.019-16.05-.397.53-.624 1.266-1.991 1.71-3.174.357-.948.422-2.156.523-9.601l.115-8.517 9.019-.059 9.018-.06.586-.696c.762-.905.777-2.005.038-2.863l-.549-.637-31.793-.113-31.794-.114-1.5-.738a8.614 8.614 0 0 1-4.023-4.105l-.604-1.289v-84.03l.604-1.29a8.611 8.611 0 0 1 4.023-4.104l1.5-.738h118.447l1.29.604c1.724.807 3.141 2.156 4.077 3.88l.771 1.42.113 11.356c.119 11.88.136 12.07 1.127 12.6.775.414 1.985.27 2.668-.317l.638-.548V35.933c0-11.17-.011-11.468-.503-13.03-1.17-3.713-4.088-6.777-7.908-8.303l-1.364-.545-59.673-.043c-51.524-.037-59.84.002-60.895.286zm96.926 12.962c-2.5 1.324-9.197 4.847-14.881 7.83l-10.336 5.423-3.986-2.242c-4.999-2.811-5.337-2.982-5.91-2.982-.257 0-6.119 2.52-13.025 5.6-6.907 3.08-12.66 5.596-12.785 5.591-.125-.004-2.143-1.093-4.485-2.42-3.114-1.764-4.466-2.412-5.035-2.412-1.113 0-19.185 7.567-19.862 8.317-1.178 1.305-.25 3.493 1.481 3.493.512 0 3.88-1.293 9.499-3.647l8.705-3.647 4.455 2.511c2.798 1.578 4.697 2.512 5.106 2.512.36 0 6.225-2.488 13.115-5.564 6.854-3.06 12.57-5.564 12.703-5.564.132 0 2.234 1.127 4.67 2.504 2.436 1.378 4.66 2.564 4.941 2.637.67.172 1.117-.048 17.674-8.722 7.627-3.995 14.199-7.57 14.606-7.942 1-.917 1.028-2.076.074-3.03-1.084-1.082-1.636-.939-6.724 1.754zm3.734 9.375l-.665.663v30.73l.665.664c.917.916 2.073.916 2.99 0l.664-.664v-30.73l-.664-.663c-.917-.917-2.073-.917-2.99 0zm-10.036 5.14c-.341.185-.725.532-.853.771-.151.282-.233 4.84-.233 12.959v12.523l.665.664c.917.916 2.073.916 2.99 0l.664-.664V55.505c0-8.156-.081-12.676-.234-12.96-.27-.505-1.372-1.128-1.971-1.115-.225.005-.688.16-1.028.345zM98.705 46.95c-1.139.655-1.145.713-1.154 11.238l-.008 9.84.665.664c.917.916 2.073.916 2.99 0l.664-.664V48.033l-.511-.588c-.614-.707-1.869-.941-2.646-.495zm-20.4.76c-.265.052-.726.353-1.022.668l-.54.574-.064 9.228c-.07 9.962-.04 10.253 1.108 10.846.935.483 1.673.405 2.462-.258l.7-.588v-9.534c0-6.394-.081-9.684-.246-9.991-.2-.373-1.607-1.188-1.85-1.07a5.416 5.416 0 0 1-.547.125zm9.943 1.75c-1.123.622-1.145.809-1.154 9.744-.007 7.11.045 8.459.344 9.037.652 1.259 2.273 1.48 3.303.45l.665-.663V50.471l-.665-.664c-.73-.73-1.587-.849-2.493-.347zm-20.996 1.745c-1.01.588-1.08 1.152-1.08 8.794 0 4.717.088 7.497.252 7.967.274.784 1.198 1.39 2.12 1.39.317 0 .91-.298 1.319-.663l.742-.662.07-7.23c.037-3.976.005-7.573-.073-7.993-.206-1.117-1.037-1.85-2.09-1.841-.474.004-1.041.11-1.26.238zm-21.19 2.338c-.761.76-.845 1.697-.763 8.508l.073 5.98.742.662c.822.733 1.569.831 2.534.333 1.118-.578 1.183-1.061 1.11-8.278l-.067-6.649-.638-.547c-.87-.748-2.247-.752-2.991-.009zm92.059.83c-1.631.628-2.709 1.615-3.508 3.213-.771 1.542-.905 3.026-.438 4.877l.26 1.03-22.268 22.292c-23.748 23.775-23.052 23.016-23.703 25.839-.52 2.253-.162 4.939.949 7.118.739 1.449 2.768 3.402 4.332 4.169 2.94 1.443 6.004 1.448 9.061.013 1.325-.621 3.262-2.493 23.618-22.815l22.175-22.139 1.086.48c4.492 1.986 9.315-1.077 9.315-5.915 0-2.718-.188-2.97-8.104-10.825-6.586-6.535-7.179-7.065-8.312-7.418-1.577-.491-3.045-.465-4.463.082zm-102.428.657l-.664.664V68.18l.7.588c1.104.928 2.656.655 3.295-.58.429-.83.474-11.654.052-12.579-.599-1.314-2.348-1.613-3.383-.579zm20.879.907l-.743.663-.068 5.353c-.059 4.536-.013 5.472.295 6.12.857 1.804 3.425 1.642 3.985-.252.163-.547.226-2.696.18-6.036l-.073-5.185-.742-.663c-.973-.868-1.862-.868-2.834 0zM25.79 57.771c-1.12.451-1.218.917-1.218 5.748v4.509l.693.692c.61.61.805.677 1.624.568.513-.069 1.147-.34 1.41-.602.447-.446.483-.76.55-4.82.077-4.77-.047-5.438-1.115-5.99-.713-.368-1.223-.396-1.944-.105zm115.464.773c.402.174 3.57 3.167 7.04 6.652 6.025 6.052 6.308 6.374 6.308 7.193 0 1.14-.337 1.71-1.233 2.084-1.097.458-1.668.21-3.427-1.487-2.345-2.263-3.141-2.525-4.416-1.453-.565.476-.699.762-.699 1.492 0 .496.113 1.114.251 1.372.225.42-.03.75-2.44 3.164l-2.692 2.696h-11.962l-.549.548c-.716.716-.914 1.567-.561 2.417.453 1.095.935 1.227 4.913 1.35l3.669.114-16.914 16.988c-12.473 12.529-17.166 17.104-17.876 17.426-1.38.626-3.38.587-4.844-.094-2.825-1.314-4.033-4.87-2.591-7.63.23-.44 10.277-10.644 22.329-22.675 19.462-19.43 21.945-21.833 22.219-21.503.416.5 1.461 1.022 2.047 1.022 1.46 0 2.546-1.525 2.037-2.863-.138-.361-1.011-1.437-1.939-2.391-1.335-1.37-1.689-1.876-1.689-2.41 0-.76.725-1.813 1.452-2.106.665-.269.74-.264 1.567.094zM25.657 79.474c-.784.427-1.085.99-1.085 2.027 0 1.098.77 1.855 2.074 2.04.547.079 17.692.112 38.1.076l37.106-.067.581-.58c.319-.319.639-.944.712-1.388.11-.68.022-.93-.557-1.578l-.688-.769-37.812-.049c-33.057-.043-37.89-.006-38.43.288zm119.571 8.259l-.742.662-.114 10.182-.113 10.182-.771 1.42c-.936 1.725-2.353 3.073-4.077 3.881l-1.29.604-10.307.114-10.306.113-.548.637c-.829.963-.669 2.499.341 3.273.271.208 2.923.279 10.664.284l10.303.008 1.706-.572c3.958-1.328 7.008-4.361 8.314-8.269.476-1.427.502-1.926.58-11.306.071-8.672.038-9.903-.286-10.586-.667-1.404-2.169-1.685-3.354-.627zM25.79 90.019c-1.297.528-1.642 2.471-.619 3.493l.6.599h41.952l.589-.7c.764-.907.78-2.005.04-2.865l-.549-.637-20.763-.044c-11.423-.024-20.982.045-21.25.154z" fill="url(#paint0_linear_242_24)"/><defs><linearGradient id="paint0_linear_242_24" x1="1.194" y1=".34" x2="133.893" y2="163.286" gradientUnits="userSpaceOnUse"><stop stop-color="#D50054"/><stop offset="1" stop-color="#FF6B00"/></linearGradient></defs></svg>