<svg xmlns="http://www.w3.org/2000/svg" width="407.797" height="123.457"><defs><linearGradient id="a" x1="-.048" y1=".5" x2=".969" y2=".5" gradientUnits="objectBoundingBox"><stop offset="0" stop-color="#2b5f51"/><stop offset=".802" stop-color="#0bbab4"/></linearGradient><linearGradient id="b" x1=".056" y1=".146" x2=".732" y2=".869" gradientUnits="objectBoundingBox"><stop offset=".091" stop-color="#0bbab4"/><stop offset=".367" stop-color="#528ba6"/><stop offset=".544" stop-color="#7c719e"/><stop offset=".716" stop-color="#a05998"/><stop offset=".9" stop-color="#c24392"/><stop offset="1" stop-color="#cf3b91"/></linearGradient><linearGradient id="c" x1=".132" y1=".891" x2=".78" y2=".046" gradientUnits="objectBoundingBox"><stop offset=".463" stop-color="#0bbab4"/><stop offset=".648" stop-color="#0faca5"/><stop offset=".999" stop-color="#1b8880"/><stop offset="1" stop-color="#1c8880"/></linearGradient><linearGradient id="d" x1=".968" y1=".758" x2="-.485" y2=".194" gradientUnits="objectBoundingBox"><stop offset=".364" stop-color="#cf3b91"/><stop offset=".95" stop-color="#936"/></linearGradient></defs><g data-name="Group 818"><g data-name="Group 808"><g data-name="Group 805" fill="#6b6b6b"><path data-name="Path 1147" d="M100.226 71.815h-8.582V47.027h8.333c5.213 0 7.7 2.766 7.7 6.241a5.7 5.7 0 0 1-4.433 5.745 6.241 6.241 0 0 1 5 6.171c-.004 3.723-2.806 6.631-8.018 6.631zm-.426-22.7h-5.674v8.866h5.78c3.369 0 5.249-1.7 5.249-4.468 0-2.656-1.773-4.394-5.358-4.394zm.141 10.923h-5.816v9.682h5.922c3.581 0 5.71-1.809 5.71-4.788s-2.269-4.895-5.815-4.895z"/><path data-name="Path 1148" d="M113.171 47.027h2.48v24.788h-2.48z"/><path data-name="Path 1149" d="M132.581 72.064c-6.95 0-12.27-5.213-12.27-12.66 0-7.411 5.32-12.66 12.27-12.66 6.986 0 12.27 5.249 12.27 12.66 0 7.447-5.284 12.66-12.27 12.66zm0-2.163c5.5 0 9.717-4.007 9.717-10.5s-4.22-10.462-9.717-10.462-9.717 3.972-9.717 10.462 4.22 10.499 9.717 10.499z"/><path data-name="Path 1150" d="M156.555 72.064c-4.965 0-8.227-2.837-8.369-6.631h2.624c.213 2.057 1.737 4.539 5.745 4.539 3.44 0 5.461-2.021 5.461-4.574 0-7.306-13.617-2.7-13.617-12.021 0-3.83 3.156-6.632 7.944-6.632 4.716 0 7.553 2.624 7.979 6.029h-2.695c-.284-1.738-1.951-3.866-5.39-3.9-2.908-.036-5.319 1.56-5.319 4.433 0 7.163 13.617 2.766 13.617 11.986.002 3.371-2.732 6.771-7.98 6.771z"/><path data-name="Path 1151" d="M179.942 46.743c5.531 0 9.645 2.766 11.418 7.518h-2.907c-1.383-3.3-4.291-5.355-8.511-5.355-5.426 0-9.575 4.008-9.575 10.5 0 6.454 4.148 10.462 9.575 10.462 4.22 0 7.128-2.057 8.511-5.284h2.907c-1.773 4.681-5.887 7.447-11.418 7.447-6.88 0-12.129-5.177-12.129-12.625s5.252-12.663 12.129-12.663z"/><path data-name="Path 1152" d="M196.048 47.027h2.482v24.788h-2.482z"/><path data-name="Path 1153" d="M217.364 49.049h-10.462v9.256h9.4v2.056h-9.4v9.4h10.462v2.057H204.42V46.991h12.944z"/><path data-name="Path 1154" d="M240.221 47.027v24.788h-2.483l-13.717-20.852v20.852h-2.482V47.027h2.482l13.724 20.816V47.027z"/><path data-name="Path 1155" d="M257.01 46.743c5.532 0 9.646 2.766 11.419 7.518h-2.908c-1.383-3.3-4.291-5.355-8.511-5.355-5.426 0-9.575 4.008-9.575 10.5 0 6.454 4.149 10.462 9.575 10.462 4.22 0 7.128-2.057 8.511-5.284h2.908c-1.773 4.681-5.887 7.447-11.419 7.447-6.88 0-12.129-5.177-12.129-12.625s5.249-12.663 12.129-12.663z"/><path data-name="Path 1156" d="M285.99 49.049h-10.461v9.256h9.4v2.056h-9.4v9.4h10.462v2.057h-12.944V46.991h12.943z"/><path data-name="Path 1157" d="M297.245 72.064c-4.965 0-8.228-2.837-8.369-6.631h2.624c.213 2.057 1.738 4.539 5.745 4.539 3.44 0 5.461-2.021 5.461-4.574 0-7.306-13.617-2.7-13.617-12.021 0-3.83 3.156-6.632 7.944-6.632 4.716 0 7.553 2.624 7.979 6.029h-2.7c-.284-1.738-1.95-3.866-5.39-3.9-2.908-.036-5.319 1.56-5.319 4.433 0 7.163 13.617 2.766 13.617 11.986.004 3.371-2.727 6.771-7.975 6.771z"/></g><path data-name="Path 1158" d="M260.642 15.56v34.416h-8.384l-14.02-21.228v21.228h-8.384V15.56h8.384l14.021 21.326V15.56zm26.524 6.716h-12.7v6.962H285.7v6.472h-11.232v7.55h12.7v6.717h-21.083V15.56h21.081zm5.785-6.716h8.384v20.591c0 4.069 2.01 6.423 5.981 6.423s6.079-2.354 6.079-6.423V15.56h8.384V36.1c0 9.512-6.668 14.218-14.61 14.218-7.991 0-14.218-4.706-14.218-14.218zm47.654 0c8.432 0 12.648 4.853 12.648 10.835a10.017 10.017 0 0 1-7.648 9.952l7.942 13.629h-9.462l-7.158-12.992h-2.01v12.992h-8.383V15.56zm-.49 6.962h-5.2v8.531h5.2c3.138 0 4.608-1.618 4.608-4.314 0-2.551-1.471-4.218-4.608-4.218zm33.289 27.8a17.315 17.315 0 0 1-17.7-17.649c0-10.345 7.943-17.6 17.7-17.6A17.165 17.165 0 0 1 391 32.67a17.234 17.234 0 0 1-17.6 17.649zm0-7.648c5.491 0 9.07-3.971 9.07-10 0-6.128-3.579-10-9.07-10-5.589 0-9.119 3.873-9.119 10 0 6.026 3.53 9.997 9.115 9.997zm37.358-19.855a7.582 7.582 0 0 1 7.207 4.412h9.217c-1.961-7.452-8.138-12.06-16.326-12.06-10.149 0-17.306 7.256-17.306 17.551s7.157 17.5 17.306 17.5c8.188 0 14.365-4.559 16.326-12.012h-9.217a7.583 7.583 0 0 1-7.207 4.413c-5.148 0-8.677-3.824-8.677-9.9s3.529-9.907 8.677-9.907zm47.409 3.579c0-5.981-4.216-10.835-12.649-10.835h-14.07v34.413h8.384V36.984h2.01L449 49.976h9.462l-7.942-13.629a10.017 10.017 0 0 0 7.651-9.953zm-13.139 4.658h-5.2v-8.535h5.2c3.137 0 4.608 1.667 4.608 4.216 0 2.697-1.47 4.315-4.608 4.315zm18.679 18.924h8.383V15.559h-8.383zM499.4 36.886l-14.019-21.327H477v34.417h8.383V28.748L499.4 49.976h8.384V15.559H499.4zm13.483 13.09h21.081v-6.717h-12.7V35.71H532.5v-6.473h-11.231v-6.961h12.7v-6.717h-21.084z" transform="translate(-138.008 -9.048)" fill="url(#a)"/><g data-name="Group 806"><path data-name="Path 1159" d="M88.866 97.979c25.716-4.739 42.041-42.451 13.67-55.626-10.373-4.726-27.459-1.319-29.983 11.285 35.42-9.033 33.6 33.908 9.007 42.97a26.722 26.722 0 0 1-6.318 1.479q-.8.087-1.618.131a37.213 37.213 0 0 0 15.242-.239z" transform="translate(-43.562 -24.208)" fill="url(#b)"/><path data-name="Path 1160" d="M71.48 14.135a28.122 28.122 0 0 1 14.562 10.514q.21.3.414.6C79.533 1.079 40.88-10.867 26.649 12.951c-9.526 14.465 3.323 40.632 21.729 35.464-20.12-19.47-.632-41.026 23.102-34.28z" transform="translate(-14.063)" fill="url(#c)"/><path data-name="Path 1161" d="M52.842 62.407a12.933 12.933 0 0 0-4.771-8.665C37.4 91.639-3.987 62.016 8.253 33.868q.331-.762.716-1.523C-8.452 50.407.364 89.564 27.979 90.288c14.541.34 26.811-13.51 24.863-27.881z" transform="translate(0 -19.42)" fill="url(#d)"/></g><g data-name="Group 807"><path data-name="Path 1162" d="M400.107 9.934a3.846 3.846 0 1 1 7.69 0 3.845 3.845 0 1 1-7.69 0zm.7 0a3.146 3.146 0 1 0 6.288 0 3.146 3.146 0 1 0-6.288 0zm3.816.37l1.168 1.675-.993.019-1.071-1.655h-.448v1.655h-.837V7.812h1.811a1.246 1.246 0 0 1 1.4 1.265 1.174 1.174 0 0 1-1.03 1.227zm-1.343-1.733v1.071h.915c.35 0 .623-.156.623-.545 0-.37-.273-.526-.623-.526z" fill="#0bbab4"/></g></g><g data-name="Group 817"><g data-name="Group 814"><g data-name="Group 813"><g data-name="Group 809" fill="#6b6b6b"><path data-name="Path 1163" d="M91.846 98.537h2l3.406 6.991 3.406-6.991h2l-4.5 8.595v5.205h-1.8v-5.209z"/><path data-name="Path 1164" d="M109.293 112.52a5.605 5.605 0 1 1 5.565-5.624 5.381 5.381 0 0 1-5.565 5.624zm0-1.585a3.684 3.684 0 0 0 3.723-4.039c0-2.734-1.8-4.021-3.664-4.021-1.9 0-3.624 1.287-3.624 4.021 0 2.752 1.684 4.039 3.565 4.039z"/><path data-name="Path 1165" d="M126.859 112.341h-1.8v-1.6a3.99 3.99 0 0 1-3.466 1.763c-2.5 0-4.457-1.545-4.457-4.654v-6.357h1.783v6.12c0 2.2 1.208 3.327 3.03 3.327 1.862 0 3.11-1.148 3.11-3.485v-5.961h1.8z"/><path data-name="Path 1166" d="M146.821 105.468c0 4.278-2.793 6.872-7.328 6.872h-4.3V98.537h4.3c4.536 0 7.328 2.654 7.328 6.931zm-7.328 5.387c3.6 0 5.486-2.02 5.486-5.387s-1.881-5.466-5.486-5.466h-2.5v10.853z"/><path data-name="Path 1167" d="M153.89 112.52c-3.09 0-5.367-2.179-5.367-5.624 0-3.426 2.2-5.585 5.367-5.585a4.975 4.975 0 0 1 5.209 5.189 9.674 9.674 0 0 1-.06 1.09h-8.674a3.412 3.412 0 0 0 3.525 3.406 2.983 2.983 0 0 0 3.05-2h1.941a4.88 4.88 0 0 1-4.991 3.524zm-3.505-6.4h6.852a3.184 3.184 0 0 0-3.426-3.287 3.361 3.361 0 0 0-3.426 3.29z"/><path data-name="Path 1168" d="M165.317 112.52c-2.535 0-4.317-1.387-4.436-3.367h1.862c.1 1.05 1.03 1.842 2.555 1.842 1.426 0 2.218-.712 2.218-1.6 0-2.416-6.417-1.01-6.417-5.05 0-1.664 1.565-3.03 3.981-3.03 2.4 0 3.981 1.287 4.1 3.406h-1.8a2.087 2.087 0 0 0-2.357-1.881c-1.327 0-2.119.634-2.119 1.505 0 2.574 6.3 1.168 6.377 5.05-.003 1.777-1.567 3.125-3.964 3.125z"/><path data-name="Path 1169" d="M176.506 112.52c-3.09 0-5.367-2.179-5.367-5.624 0-3.426 2.2-5.585 5.367-5.585a4.975 4.975 0 0 1 5.209 5.189 9.768 9.768 0 0 1-.06 1.09h-8.675a3.412 3.412 0 0 0 3.526 3.406 2.982 2.982 0 0 0 3.05-2h1.941a4.88 4.88 0 0 1-4.991 3.524zm-3.506-6.4h6.852a3.185 3.185 0 0 0-3.426-3.287 3.361 3.361 0 0 0-3.425 3.29z"/><path data-name="Path 1170" d="M185.892 112.341h-1.8v-10.853h1.8v1.763a3.655 3.655 0 0 1 3.506-1.961v1.861h-.475c-1.723 0-3.03.772-3.03 3.288z"/><path data-name="Path 1171" d="M192.131 101.488l3.386 9.19 3.367-9.19h1.921l-4.258 10.853h-2.1l-4.258-10.853z"/><path data-name="Path 1172" d="M207.28 112.52c-3.09 0-5.367-2.179-5.367-5.624 0-3.426 2.2-5.585 5.367-5.585a4.975 4.975 0 0 1 5.209 5.189 9.681 9.681 0 0 1-.06 1.09h-8.674a3.412 3.412 0 0 0 3.525 3.406 2.983 2.983 0 0 0 3.05-2h1.941a4.88 4.88 0 0 1-4.991 3.524zm-3.505-6.4h6.852a3.184 3.184 0 0 0-3.426-3.287 3.361 3.361 0 0 0-3.426 3.29z"/><path data-name="Path 1173" d="M298.648 112.48c-2.773 0-4.734-1.545-4.773-3.822h1.921a2.556 2.556 0 0 0 2.852 2.3c1.743 0 2.773-.99 2.773-2.3 0-3.723-7.466-1.347-7.466-6.476 0-2.277 1.842-3.822 4.574-3.822 2.634 0 4.357 1.446 4.575 3.545h-1.979a2.5 2.5 0 0 0-2.674-2c-1.485-.04-2.654.732-2.654 2.218 0 3.565 7.447 1.347 7.447 6.456-.001 1.959-1.606 3.901-4.596 3.901z"/><path data-name="Path 1174" d="M310.51 101.31c2.693 0 4.456 1.386 5.01 3.664h-1.941a2.957 2.957 0 0 0-3.07-2.139c-1.981 0-3.446 1.406-3.446 4.06 0 2.693 1.466 4.1 3.446 4.1a2.912 2.912 0 0 0 3.07-2.139h1.941a4.828 4.828 0 0 1-5.01 3.664c-3.09 0-5.288-2.179-5.288-5.624 0-3.407 2.198-5.586 5.288-5.586z"/><path data-name="Path 1175" d="M317.619 98.498a1.208 1.208 0 1 1 1.228 1.228 1.209 1.209 0 0 1-1.228-1.228zm.3 2.991h1.8v10.853h-1.8z"/><path data-name="Path 1176" d="M327.481 112.52c-3.09 0-5.367-2.179-5.367-5.624 0-3.426 2.2-5.585 5.367-5.585a4.975 4.975 0 0 1 5.209 5.189 9.783 9.783 0 0 1-.06 1.09h-8.674a3.412 3.412 0 0 0 3.525 3.406 2.983 2.983 0 0 0 3.05-2h1.941a4.88 4.88 0 0 1-4.991 3.524zm-3.505-6.4h6.852a3.184 3.184 0 0 0-3.426-3.287 3.361 3.361 0 0 0-3.426 3.29z"/><path data-name="Path 1177" d="M343.007 106.201c0-2.218-1.208-3.347-3.03-3.347-1.842 0-3.11 1.148-3.11 3.485v6h-1.8v-10.851h1.8v1.545a4.009 4.009 0 0 1 3.486-1.743c2.515 0 4.437 1.545 4.437 4.654v6.4h-1.783z"/><path data-name="Path 1178" d="M352.354 101.31c2.694 0 4.456 1.386 5.011 3.664h-1.941a2.957 2.957 0 0 0-3.07-2.139c-1.98 0-3.446 1.406-3.446 4.06 0 2.693 1.465 4.1 3.446 4.1a2.911 2.911 0 0 0 3.07-2.139h1.941a4.828 4.828 0 0 1-5.011 3.664c-3.09 0-5.288-2.179-5.288-5.624 0-3.407 2.198-5.586 5.288-5.586z"/><path data-name="Path 1179" d="M364.454 112.52c-3.089 0-5.367-2.179-5.367-5.624 0-3.426 2.2-5.585 5.367-5.585a4.975 4.975 0 0 1 5.209 5.189 9.784 9.784 0 0 1-.059 1.09h-8.674a3.411 3.411 0 0 0 3.525 3.406 2.982 2.982 0 0 0 3.05-2h1.941a4.88 4.88 0 0 1-4.992 3.524zm-3.505-6.4h6.852a3.185 3.185 0 0 0-3.426-3.287 3.361 3.361 0 0 0-3.426 3.29z"/></g><g data-name="Group 812"><g data-name="Group 810"><path data-name="Path 1180" d="M274.946 120.291l-.038.144c-.143.092-.2.2-.339.289l-.2.067c-.119-.091-.314-.025-.432.015-.2.066-.366.08-.561.147-.014-.04-.091-.013-.091-.013a.29.29 0 0 0-.38-.089 2.082 2.082 0 0 1-.575-.023 3.44 3.44 0 0 0-.641.042 4.964 4.964 0 0 1-.772.043 2.512 2.512 0 0 1-.641-.088l-.432.015a.974.974 0 0 1-.458-.063.164.164 0 0 0-.183-.026l-.47.159a1.358 1.358 0 0 1-.275-.038.7.7 0 0 0-.274-.038 4.177 4.177 0 0 0-1.046.136 1.6 1.6 0 0 0-.511-.089.933.933 0 0 1-.17.014 3.085 3.085 0 0 1-.693.017 1.708 1.708 0 0 0-.811.057c-.078.026-.222-.012-.34.028-.078.026-.235-.051-.406-.037a.55.55 0 0 1-.353-.012.589.589 0 0 0-.262 0 .972.972 0 0 1-.34.028.7.7 0 0 0-.287.054c-.078.027-.144-.038-.183-.025-.183-.025-.392 0-.615-.01a5.538 5.538 0 0 1-1.138-.007c-.117.04-.288.054-.366.08a5.3 5.3 0 0 1-1.19.1c-.105-.052-.118-.091-.2-.065a2.428 2.428 0 0 1-.575.108 4.479 4.479 0 0 0-1.033.045.248.248 0 0 1-.17.014.223.223 0 0 0-.2-.064c-.157.053-.327-.064-.406-.037l-.353.119c-.078.026-.144-.039-.222-.012l-.117.04a.088.088 0 0 1-.1-.052 1.968 1.968 0 0 0-.615-.01l-.078.027c-.078.026-.209.027-.326.067s-.262 0-.379.042c-.131 0-.2-.065-.314-.025l-.078.027c-.117.04-.287.054-.405.094a1.284 1.284 0 0 1-.4.094 1.733 1.733 0 0 0-.641.042l-.117.04a.13.13 0 0 1-.092-.012c-.249-.091-.51.042-.706-.023a2.526 2.526 0 0 1-.549.055c-.039.013-.052.105-.078.157l-.078.026c-.066-.065-.118-.091-.157-.078s-.065.066-.091.118c-.039.013-.065.066-.143.092a1.821 1.821 0 0 1-.209.027l-.576-.023a1.222 1.222 0 0 0-.379.041l-.078.027c-.04.013-.131 0-.144-.038a.433.433 0 0 0-.223-.012 1.894 1.894 0 0 1-.182.106l-.314.106c-.078.026-.1.079-.182.105a.153.153 0 0 1-.131 0c-.1-.052-.209.027-.34.028a5.044 5.044 0 0 0-1.046.136l-.078.026c-.117.04-.288.054-.405.094l-.078.027a.971.971 0 0 1-.5.081c-.039.013-.065.066-.143.092a1.786 1.786 0 0 1-.182.105l-.039.013c-.117.04-.262 0-.34.028a1.486 1.486 0 0 0-.4.225.313.313 0 0 1-.183-.025.217.217 0 0 0-.144-.038.377.377 0 0 0-.156.184.041.041 0 0 1-.026.052l-.117.04c-.157.053-.274.093-.406-.037a.414.414 0 0 1-.159-.47c.026-.052.1-.079.091-.118-.027-.209.038-.275.195-.328l.235-.08a.144.144 0 0 0 .065-.066c.013-.091.039-.144.117-.171.039-.013.092.012.131 0 .183.026.326-.067.445.024.052.026.091.013.17-.014l1.058-.358a.142.142 0 0 1 .091.012c.039-.013.026-.052-.014-.17l-.013-.039c-.027-.078 0-.131.117-.171.026-.053.026-.053.013-.092s-.014-.039-.066-.065l-.014-.04.026-.052c.117-.04.183.026.249.09.013.039.013.039.052.026a.13.13 0 0 0 .065-.066c-.027-.078-.04-.118 0-.131a.446.446 0 0 1 .183-.106c.039-.014.105.052.223.012.013.039.052.026.091.012s.039-.013.065-.066l.392-.133c.2-.067.379-.042.575-.108l.118-.04c.157-.053.379-.041.653-.134.3-.014.64-.173.941-.188s.653-.134 1.032-.175l.078-.026a5.194 5.194 0 0 0 .68-.056c.2-.067.4-.094.6-.16a1.656 1.656 0 0 1 .562-.016.249.249 0 0 0 .17-.014l.2-.066a.376.376 0 0 1 .209-.028.583.583 0 0 0 .262 0 .7.7 0 0 1 .6-.029c.039-.013.092.013.131 0s.1-.079.143-.092l.118-.04a.7.7 0 0 1 .287-.054.441.441 0 0 0 .222.012.416.416 0 0 1 .392 0 .151.151 0 0 1 .131 0 3.3 3.3 0 0 1 1.085-.149 1.053 1.053 0 0 1 .627-.082c.053.026.092.013.209-.027.039-.013.2-.066.261 0 .053.026.053.026.092.013l.078-.026c.313-.106.693-.017.967-.11a.984.984 0 0 1 .393 0c.039-.013.144.038.144.038l.117-.04a3.653 3.653 0 0 1 1.229-.111 1.1 1.1 0 0 1 .509-.042.943.943 0 0 0 .471-.029c.039-.013.17-.014.209-.027a.864.864 0 0 1 .484.011.248.248 0 0 1 .17-.014c.209-.027.327.064.484.011l.431-.016.458-.068.759.048a1.374 1.374 0 0 0 .641-.042 5.682 5.682 0 0 1 .824-.018c.039-.013.092.012.183.025a1.174 1.174 0 0 0 .562-.016c.406.037.811-.057 1.269.006.183.025.418-.054.68-.056a.165.165 0 0 0 .183.025.834.834 0 0 0 .471-.028.551.551 0 0 1 .209-.027l.824-.018c.078-.026.223.012.262 0a.605.605 0 0 1 .523 0l.117-.04c.235-.079.536.036.732-.03.117-.04.353.011.471-.028l.981.06c.118.091.2.064.3.116.262 0 .393.129.486.4a.907.907 0 0 0 .145.3c.092.012.1.052.131.13a2.686 2.686 0 0 0 .014.559zm-29.069 1.211a.222.222 0 0 0 .144.038l.026.078a.04.04 0 0 0-.026.052l-.039.013a.317.317 0 0 0-.17.014.523.523 0 0 0-.221.119c-.039.013-.131 0-.17.014a.128.128 0 0 1-.066-.065.041.041 0 0 1-.053-.026c-.013-.039.026-.052.065-.066zm1.086-.019l-.013-.04c-.013-.039-.053-.026-.131 0a.04.04 0 0 1-.026.052.249.249 0 0 0 .166-.012zm.614-.121a.04.04 0 0 0-.052-.026l-.026.052zm.431-.146l-.012.091a.04.04 0 0 0 .052.026.152.152 0 0 0 .131 0c.078-.027.078-.027.065-.066l-.014-.039c-.1-.052-.144-.038-.144-.038zm1.333-.19c-.039.013-.039.013-.065.066a.041.041 0 0 1 .053.026.145.145 0 0 1 .092.013c.039-.013.026-.053.051-.105a.04.04 0 0 1-.052-.026zm1.386-.164c.039-.013.078-.027.065-.066l-.588.068-.052-.026a.041.041 0 0 0-.026.052c-.039.014-.039.014-.065.066.013.04.026.079.1.052a2.259 2.259 0 0 1 .444-.107zm.823-.148c-.078.027-.17.014-.248.041-.039.013-.079.026-.065.066l-.039.013a.312.312 0 0 0 .17-.014.374.374 0 0 0 .182-.107z" fill="#6b6b6b"/></g><g data-name="Group 811" fill="#6b6b6b"><path data-name="Path 1181" d="M221.587 118.512a.366.366 0 0 0 .3.4.292.292 0 0 0 .06.094l.041.03a.53.53 0 0 0 .6 0 .459.459 0 0 0 .24-.486v-.117a.185.185 0 0 0-.106-.17.325.325 0 0 1-.039-.053l.023-.023a.422.422 0 0 0 .118-.3l-.028-.105a.9.9 0 0 1-.046-.288.538.538 0 0 1 .024-.076.683.683 0 0 0 .055-.239v-.039a.634.634 0 0 0-.039-.2.328.328 0 0 0-.029-.138 1.2 1.2 0 0 0 .068-.489v-.078a1.293 1.293 0 0 1 .018-.174 1.654 1.654 0 0 0 .021-.217v-.06a4.716 4.716 0 0 1 .189-.95.684.684 0 0 0 .029-.174.244.244 0 0 1 .013-.081.289.289 0 0 0 .083-.223.433.433 0 0 0-.027-.145.162.162 0 0 1-.012-.05v-.313a.643.643 0 0 0-.039-.2c0-.015 0-.023.028-.065l.009-.016a.306.306 0 0 0 .12-.232v-.078a1.011 1.011 0 0 1 .068-.3l.2-.509.018-.078a.6.6 0 0 0 .031-.172.307.307 0 0 0-.039-.157v-.062l-.04-.04.08-.04v-.233l-.044-.044a.547.547 0 0 0-.049-.042 1.653 1.653 0 0 0 .06-.282c.007-.046.014-.092.023-.135a.892.892 0 0 0 .1-.3.721.721 0 0 1 .1-.279.268.268 0 0 0 .083-.185v-.117a1.552 1.552 0 0 1 .149-.54 1.324 1.324 0 0 0 .047-.439 1.4 1.4 0 0 1 .018-.175 1.568 1.568 0 0 0 .021-.217v-.078c0-.023.006-.034.034-.077a.623.623 0 0 0 .076-.15l.008-.048a.474.474 0 0 1 .031-.129.689.689 0 0 0 .047-.224.88.88 0 0 1 .02-.16.945.945 0 0 0 .019-.153v-.042l.013-.054a1.657 1.657 0 0 1 .139-.406.234.234 0 0 0 .126-.2l.014-.132a.313.313 0 0 0 .064-.181v-.329a.556.556 0 0 1 .036-.056.548.548 0 0 0 .123-.3.082.082 0 0 1 .037-.039l.038-.028a.339.339 0 0 0 .082-.244 4.223 4.223 0 0 1 .271-.922 2.683 2.683 0 0 0 .087-.573c.019-.016.042-.035.069-.062l.036-.059a5.127 5.127 0 0 0 .282-1.143.968.968 0 0 1 .015-.119 1.9 1.9 0 0 0 .023-.2 5.109 5.109 0 0 0 .343-1c.035-.088.063-.176.089-.261a1.946 1.946 0 0 1 .1-.276l.013-.025a.3.3 0 0 0 .081-.2.593.593 0 0 1 .031-.227l.023-.066a.806.806 0 0 0 .063-.294.449.449 0 0 1 .053-.151.619.619 0 0 0 .138-.36.691.691 0 0 1 .08-.172.436.436 0 0 0 .081-.216.451.451 0 0 1 .036-.136.522.522 0 0 0 .042-.177 1.468 1.468 0 0 1 .18-.677l.013-.038a1.07 1.07 0 0 1 .077-.208 1.141 1.141 0 0 0 .121-.422.992.992 0 0 0 .036-.139c.019-.04.036-.08.053-.12a.761.761 0 0 1 .142-.248l.044-.044v-.062a2.677 2.677 0 0 1 .131-.72c.021-.074.041-.148.048-.191a.771.771 0 0 0 .039-.1.216.216 0 0 1 .051-.1l.028-.039c.012-.024.028-.052.044-.08a.479.479 0 0 0 .089-.222v-.492l.039-.029a1.061 1.061 0 0 0 .233-.454l.11-.367a2.646 2.646 0 0 0 .281-.571 4.6 4.6 0 0 0 .2-.75.954.954 0 0 1 .076-.3 9.131 9.131 0 0 1 .276-.794c0-.14.033-.158.075-.166l.121-.027v-.048h.038v-.15a2.267 2.267 0 0 1 .019-.258 2.544 2.544 0 0 0 .02-.29c0-.064 0-.233.051-.267l.067-.045v-.312a1.055 1.055 0 0 0-.09-.226.779.779 0 0 1-.067-.165l-.014-.056-.166-.111-.129-.041a1.947 1.947 0 0 1-.4-.125l-.067-.016a.281.281 0 0 0-.253.1.846.846 0 0 1-.217.017.6.6 0 0 0-.64.384.648.648 0 0 0-.066.1.24.24 0 0 1-.082.093l-.038.026-.37.9-.011.057a.747.747 0 0 1-.049.163.813.813 0 0 0-.068.268.746.746 0 0 1-.079.243 1.074 1.074 0 0 0-.117.422v.059a.7.7 0 0 0-.153.5c0 .012-.011.027-.019.044a.624.624 0 0 0-.061.189l-.229.724a.676.676 0 0 0-.047.243.645.645 0 0 1-.1.364l-.012.089-.055.028-.02.059a2.416 2.416 0 0 0-.078.336 1.1 1.1 0 0 1-.07.271 3.589 3.589 0 0 0-.237.666 4.138 4.138 0 0 1-.168.508c-.009.044-.016.087-.023.127a.7.7 0 0 1-.121.344c-.012.025-.025.045-.036.063a.338.338 0 0 0-.056.129c-.02.06-.043.122-.066.185a3.171 3.171 0 0 0-.171.59 1.183 1.183 0 0 1-.145.531l-.283.7-.075.415-.117.392-.006.043a.293.293 0 0 1-.052.141.939.939 0 0 0-.094.225.35.35 0 0 0-.048.163.769.769 0 0 0-.132.35l-.026.133a.6.6 0 0 1-.015.067.6.6 0 0 0-.024.135.739.739 0 0 1-.1.364 1.2 1.2 0 0 0-.133.51l-.056.163a2.9 2.9 0 0 0-.218 1v.06a.313.313 0 0 0-.075.142c-.01.026-.023.051-.035.075a.649.649 0 0 0-.086.311 1.341 1.341 0 0 1-.086.374 1.7 1.7 0 0 0-.11.526v.051a.419.419 0 0 0-.117.34.317.317 0 0 1-.009.106 1.068 1.068 0 0 0-.147.65 3.331 3.331 0 0 0-.2.994.269.269 0 0 0-.035.1.577.577 0 0 0-.122.419.383.383 0 0 1-.035.1l-.028.039a.777.777 0 0 0-.055.341v.117a.4.4 0 0 0 .028.126l.008.022a.386.386 0 0 0-.023.053.828.828 0 0 0-.169.621.479.479 0 0 1-.063.168.5.5 0 0 0-.055.263v.2a.157.157 0 0 1-.014.074 1.68 1.68 0 0 0-.182.592c0 .093-.01.185-.019.279a3.071 3.071 0 0 0-.02.308.968.968 0 0 1-.069.289 1.879 1.879 0 0 0-.088.338v.046a4.908 4.908 0 0 0-.078.507 3.076 3.076 0 0 1-.077.463 2.292 2.292 0 0 0-.064.482 2.069 2.069 0 0 1-.054.418l-.006.041a1.876 1.876 0 0 1-.044.371 1.383 1.383 0 0 0-.034.256v.117a1.1 1.1 0 0 1-.036.241 1.354 1.354 0 0 0-.043.306v.549a.088.088 0 0 1-.026.06.224.224 0 0 0-.053.135.592.592 0 0 0 .042.236.157.157 0 0 0 .044.086.315.315 0 0 0-.086.226v.062l.127.127.13-.008a.2.2 0 0 0 .019.032l-.034-.005v.15a.388.388 0 0 1-.042.046l-.044.044v.571c0 .212.145.228.189.228a.194.194 0 0 0 .144-.066c.006 0 .012-.01.018-.013v.253a.44.44 0 0 0-.137.281.565.565 0 0 1-.043.147l-.02.024v.035a.276.276 0 0 0-.035.125.3.3 0 0 0 .157.267zm.933-7.323a.35.35 0 0 1 .039.2.294.294 0 0 1-.039.156v-.039c-.039 0-.039-.04-.039-.079 0-.082.038-.16.038-.238zm-.274 1.253l.117-.548c.039 0 .039.039.039.078v.117a2.13 2.13 0 0 0-.039.431c0 .078-.039.078-.079.078-.039-.039-.039-.039-.039-.078a.038.038 0 0 1-.039-.039zm-.117.744a.038.038 0 0 0 .039-.039c.04.039.079.039.079.078a.137.137 0 0 0-.039.078.039.039 0 0 0-.04.04c-.039-.04-.039-.04-.039-.078zm-.157 1.135h.04c.039 0 .039 0 .039.078a.144.144 0 0 1-.039.117.039.039 0 0 1-.04.039l-.078-.039V114.421h-.013l.016-.006a.34.34 0 0 1 .074-.094zm-.078.627v.078l-.039-.039a.038.038 0 0 1 .038-.04zm-.117.587h.039a.236.236 0 0 1-.039.157.038.038 0 0 0-.039-.039c-.001-.079-.001-.118.038-.118z"/><path data-name="Path 1182" d="M256.106 103.025c.015-.12.106-.178.293-.286a1.932 1.932 0 0 0 .358-.248h.011c.026 0 .063-.025.149.146.046.1.1.2.143.295a1.894 1.894 0 0 1 .235.623v.392a.955.955 0 0 1-.062.442l-.077.154.164.055a.63.63 0 0 1 .1.042l.256.255v-.351a1.074 1.074 0 0 0 .13-.324.84.84 0 0 1 .139-.324.5.5 0 0 0 .1-.315.614.614 0 0 1 .034-.178l.025-.038v-.006a.193.193 0 0 0 .039-.117.538.538 0 0 0-.075-.243.365.365 0 0 1-.043-.109l.01-.048-.044-.044a.27.27 0 0 1-.005-.064.157.157 0 0 1 .023-.09l.016-.067a.905.905 0 0 0-.378-.678 7.933 7.933 0 0 1-.1-.093.931.931 0 0 0-.536-.213 1.732 1.732 0 0 1-.129-.024 3.149 3.149 0 0 0-.616-.081 3.117 3.117 0 0 0-1.61.534 10.647 10.647 0 0 0-1.119.88.8.8 0 0 0-.187.229l-1.081 1.236c-.147.2-.328.4-.5.587-.1.106-.191.209-.278.31a2.239 2.239 0 0 0-.277.5l-.081.178-.258.371c-.149.15-.279.279-.279.42v.228h.076a4.166 4.166 0 0 1-.219.34.855.855 0 0 0-.183-.03.546.546 0 0 1-.1-.015h-.013a.215.215 0 0 0-.021-.025 1.282 1.282 0 0 0 .529-1.16l.01-.048-.044-.044a.259.259 0 0 1-.005-.064l.141-.285.016-.459a1.368 1.368 0 0 1 .034-.394.479.479 0 0 1 .069-.138.45.45 0 0 0 .093-.251v-.039c0-.106.008-.22.017-.342.011-.149.022-.309.022-.481v-.392a.441.441 0 0 1 .113-.324l.039-.016v-.062l.06-.06-.02-.082a3.77 3.77 0 0 1-.083-.6 8.15 8.15 0 0 0-.031-.318l-.155-1.354c0-.128 0-.288-.138-.354a1.331 1.331 0 0 0-.716-.226.656.656 0 0 0-.346.094.688.688 0 0 0-.47.683.419.419 0 0 0 .028.145.3.3 0 0 1 .016.086 1.986 1.986 0 0 1 .034.473v.185a.31.31 0 0 0-.039.167.277.277 0 0 0 .034.145c-.034.487-.034.96-.03 1.349-.031.139-.062.285-.09.431a.424.424 0 0 1-.2-.034 2.323 2.323 0 0 0-.545-.044 3.065 3.065 0 0 0-.626.039 3.987 3.987 0 0 0-.489.04 3.644 3.644 0 0 1-.451.038c-.025 0-.084 0-.223.094a.155.155 0 0 1-.09.024 1.517 1.517 0 0 0-.745.157h-.156c-.1 0-.219 0-.273.061a1 1 0 0 1-.549.135l-.145.055-.039.028c-.033.033-.057.034-.129.034a.262.262 0 0 0-.24.1.12.12 0 0 1-.074.02.227.227 0 0 0-.235 0 .308.308 0 0 0-.2.06l-.225.1a.276.276 0 0 0-.244.117h-.115l-.107.034a.339.339 0 0 0-.137.094c-.047.005-.1.008-.145.011a1.3 1.3 0 0 0-.6.137l-.645.147-.484-.442a.488.488 0 0 1-.006-.1.315.315 0 0 0-.206-.274 1.225 1.225 0 0 0-.319-.273 5.121 5.121 0 0 0-1.051-.683l-.052-.029a.328.328 0 0 0-.294-.181.389.389 0 0 0-.273-.119 3.373 3.373 0 0 0-.667-.193 3.522 3.522 0 0 1-.577-.193 5.38 5.38 0 0 0-1.41-.24h-.015l-.094-.032a1.218 1.218 0 0 0-.4-.047h-1.958c-.168 0-.275.042-.32.123l-.048.023a.19.19 0 0 0-.1-.029.119.119 0 0 1-.048-.013.357.357 0 0 0-.217-.006.484.484 0 0 1-.119.022c-.594.111-1.207.227-1.854.412v-.148a.041.041 0 0 1 .009-.03l.434-.276.076-.047a.521.521 0 0 0 .247-.237.757.757 0 0 1 .408-.229l.056-.019a.546.546 0 0 0 .211-.149c.015-.015.037-.038.02-.039h.438l-.251-.249.012-.013a.394.394 0 0 1 .228-.168.545.545 0 0 0 .223-.055l.066-.033.014-.072c.012-.063.037-.115.206-.115.232 0 .267-.118.267-.189v-.078a.319.319 0 0 0 0-.063l.037-.027a.407.407 0 0 1 .051-.034h.385v-.189-.03a.484.484 0 0 0 .165.023.445.445 0 0 0 .224-.055l.036-.018.2-.306v-.131h.068l.083-.083.036-.059a.259.259 0 0 1 .131-.154 1.89 1.89 0 0 0 .275-.211 1.426 1.426 0 0 1 .257-.191.333.333 0 0 0 .1-.061.206.206 0 0 0 .075.014h.109l.241-.289.031-.016v-.054a.442.442 0 0 1 .026-.056.741.741 0 0 0 .04-.094h.1a.279.279 0 0 0 .184-.083l.106-.106-.01-.01a.144.144 0 0 0 .033-.036l.024-.256.048-.047a1.117 1.117 0 0 1 .1-.092.383.383 0 0 0 .177-.075l.048-.025a.711.711 0 0 1 .112-.058.548.548 0 0 0 .186-.118 1.356 1.356 0 0 0 .2-.232c.02-.011.04-.02.058-.028a.308.308 0 0 0 .214-.243h.11l.044-.044a.4.4 0 0 0 .083-.3.184.184 0 0 0-.006-.046h.09a.38.38 0 0 0 .3-.159l.026-.028a.856.856 0 0 0 .238-.231 1.056 1.056 0 0 1 .131-.145.292.292 0 0 0 .13-.125 1.244 1.244 0 0 0 .124-.157.313.313 0 0 1 .072-.082 1.332 1.332 0 0 0 .165-.139.962.962 0 0 1 .211-.165l.039-.028a3.373 3.373 0 0 0 .145-.351.311.311 0 0 0 .05-.04l.106-.106-.085-.085h.069a.2.2 0 0 0 .21-.127.217.217 0 0 0 .064.01.213.213 0 0 0 .184-.122l.043-.044v-.062c0-.083 0-.091.107-.171.125-.034.215-.167.308-.31a2.59 2.59 0 0 1 .442-.666l.029-.04a2.814 2.814 0 0 1 .264-.452 1.237 1.237 0 0 0 .114-.246 1.027 1.027 0 0 1 .088-.194l.477-.836c.04-.09.085-.184.131-.281a4.462 4.462 0 0 0 .35-.893.767.767 0 0 1 .177-.489.581.581 0 0 0 .255-.511.877.877 0 0 0-.04-.307.616.616 0 0 0-.028-.151.192.192 0 0 1-.011-.051.181.181 0 0 0-.039-.117.4.4 0 0 1 .053-.147.852.852 0 0 0 .182-.636.355.355 0 0 0-.2-.344v-.478a2.442 2.442 0 0 0-.07-.547 3.362 3.362 0 0 1-.049-.257l-.011-.078-.07-.035a.066.066 0 0 1-.035-.062.372.372 0 0 0-.2-.328c0-.2-.1-.262-.17-.282a1.3 1.3 0 0 1-.235-.217 2.1 2.1 0 0 0-.226-.219.437.437 0 0 0-.054-.043c-.046-.032-.059-.043-.059-.086v-.078a.445.445 0 0 0-.122-.3l-.117-.117-.362-.208-.263-.306h-.069c-.043 0-.083-.027-.157-.08l-.111-.076h-.097l-.031-.031-.042-.01a3.378 3.378 0 0 1-.353-.106 2.627 2.627 0 0 0-.765-.171.832.832 0 0 0-.372-.116.584.584 0 0 1-.227-.059l-.04-.017a2.408 2.408 0 0 0-.585-.083l-.067.016a.209.209 0 0 1-.129.024.424.424 0 0 0-.089 0l-.044-.044h-.414a.725.725 0 0 1-.247-.024l-.05-.024-.054.013a1.33 1.33 0 0 1-.355.035h-.587a.521.521 0 0 0-.241.039h-.424a.839.839 0 0 0-.2.026.42.42 0 0 1-.076.013.7.7 0 0 0-.456.129l-.052.013a1.172 1.172 0 0 1-.314.053.385.385 0 0 0-.108.02.361.361 0 0 1-.088.019h-.078a1.558 1.558 0 0 0-.458.094l-.127.063a1.426 1.426 0 0 0-.354.071l-.158.046a.24.24 0 0 0-.211.148l-.027-.006a1 1 0 0 0-.383 0 .681.681 0 0 1-.123.015h-.062l-.044.044a.7.7 0 0 1-.288.145l-.022.007a.788.788 0 0 0-.41.142 1.236 1.236 0 0 1-.333.138 1.454 1.454 0 0 0-.395.166.93.93 0 0 1-.188.064.746.746 0 0 0-.231.088 1.356 1.356 0 0 0-.2.106.37.37 0 0 1-.211.079.2.2 0 0 0-.211.108 1.171 1.171 0 0 1-.381.193 2.444 2.444 0 0 0-.271.113l-.279.174a.874.874 0 0 0-.443.16 1.474 1.474 0 0 1-.187.1l-.251.18a1.5 1.5 0 0 0-.5.253.7.7 0 0 1-.157.078.6.6 0 0 0-.335.245.771.771 0 0 0-.423.174 1 1 0 0 1-.129.082l-.491.3a1.17 1.17 0 0 0-.471.3l-.085.016a.472.472 0 0 0-.1.066.194.194 0 0 1-.078.044l-.05.023-.025.025a.351.351 0 0 0-.094.086 1.674 1.674 0 0 0-.908.606l-.044.044v.008c-.084.035-.161.076-.235.115a1.139 1.139 0 0 1-.239.107l-.054.026c-.044.033-.092.066-.14.1a2.955 2.955 0 0 0-.365.286l-.411.187a3.122 3.122 0 0 0-.807.64.631.631 0 0 0-.088.066c-.033.027-.073.061-.1.061a.236.236 0 0 0-.221.175.342.342 0 0 1-.226.188 2.667 2.667 0 0 0-.625.414l-.027.022a.433.433 0 0 0-.083.031.456.456 0 0 0-.208.167.476.476 0 0 1-.156.136l-.557.478a.514.514 0 0 0-.087.119.59.59 0 0 0-.355.237l-.053.062-.531.414a4.5 4.5 0 0 0-.925.883l-.3.265a3.955 3.955 0 0 0-.742.7 3.4 3.4 0 0 1-.559.607 8.913 8.913 0 0 0-.245.231l-.093.09a1.213 1.213 0 0 0-.326.419 1.693 1.693 0 0 1-.285.431 1.5 1.5 0 0 0-.388.528 1.936 1.936 0 0 1-.167.34 2.2 2.2 0 0 0-.145.283l-.15.415a.5.5 0 0 0-.055.263v.138a.665.665 0 0 0-.171.17l-.281.79a.351.351 0 0 0-.057.233l.016.067a1.248 1.248 0 0 1 .052.125.484.484 0 0 0 .172.266c.071.071.073.074.073.129v.078a.487.487 0 0 0 .163.342 1.153 1.153 0 0 0 .521.348l.318.177a.3.3 0 0 0 .205.066h.189a.521.521 0 0 0 .241.039.366.366 0 0 0 .22-.048.754.754 0 0 0 .063-.019l.023-.008a.363.363 0 0 0 .064.026.488.488 0 0 0 .257.048.637.637 0 0 0 .3-.055l.045-.022h.045a.449.449 0 0 0 .447-.238.269.269 0 0 1 .053-.044.307.307 0 0 0 .1-.1.5.5 0 0 0 .137-.355.407.407 0 0 0-.174-.352 1.518 1.518 0 0 0-.72-.346.63.63 0 0 1-.3-.117.929.929 0 0 0-.412-.157.491.491 0 0 0-.12-.064.131.131 0 0 1 .018-.062 1.846 1.846 0 0 0 .163-.391c.025-.076.048-.148.063-.184l.126-.169.05-.084a5.647 5.647 0 0 1 .38-.581l.1-.17a1.5 1.5 0 0 1 .245-.361l.157-.2.027-.052a.865.865 0 0 1 .284-.415l.07-.068a.321.321 0 0 1 .057-.042.375.375 0 0 0 .164-.182l.445-.519a2.339 2.339 0 0 0 .178-.207 1.167 1.167 0 0 1 .213-.224 8.35 8.35 0 0 1 .862-.783 5.235 5.235 0 0 1 .878-.764.982.982 0 0 0 .3-.293c.022-.022.043-.046.065-.07a.4.4 0 0 0 .064-.082h.062l.044-.044a2.649 2.649 0 0 1 .316-.254c.072-.052.146-.106.228-.173l.533-.495a4.5 4.5 0 0 0 .565-.369c.123-.089.245-.178.376-.261l1.013-.74c.059-.039.115-.073.169-.106a1.74 1.74 0 0 0 .494-.4.661.661 0 0 1 .24-.145 1.541 1.541 0 0 0 .3-.165.9.9 0 0 0 .2-.11.588.588 0 0 1 .072-.046.382.382 0 0 0 .232-.229c.029-.025.072-.029.171-.029l.047-.008a.918.918 0 0 0 .259-.149c.028-.021.057-.043.105-.076a3.8 3.8 0 0 1 .987-.6l.044-.02a.551.551 0 0 0 .238-.169 2.152 2.152 0 0 1 .4-.233l.066-.036a1.085 1.085 0 0 0 .442-.217l.266-.133a.3.3 0 0 0 .2-.1l.409-.263.8-.344a1.586 1.586 0 0 0 .523-.3l.06-.045h.007a1.117 1.117 0 0 0 .542-.181 2.288 2.288 0 0 1 .293-.141l.033-.018a2.473 2.473 0 0 1 .592-.276 2.847 2.847 0 0 0 .625-.287 1.279 1.279 0 0 0 .3-.079 1.034 1.034 0 0 1 .313-.075l.057-.012a6.22 6.22 0 0 1 .784-.247c.237-.064.481-.129.753-.227a2.4 2.4 0 0 1 .716-.18 1.191 1.191 0 0 0 .715-.157h.537l.067-.016a.608.608 0 0 1 .207-.023.91.91 0 0 0 .3-.039.5.5 0 0 1 .183.036 3.505 3.505 0 0 0 .656.042h.156a1.677 1.677 0 0 1 .314.039 1.635 1.635 0 0 0 .312.04.9.9 0 0 1 .192.032 1.423 1.423 0 0 0 .278.046l.036.022a.3.3 0 0 0 .16.058.827.827 0 0 1 .329.086 1.5 1.5 0 0 0 .324.1 5.484 5.484 0 0 1 .508.358c.086.065.172.13.257.192a3.417 3.417 0 0 1 .229.41 2.259 2.259 0 0 0 .278.462 1.618 1.618 0 0 0 .042.323 1.383 1.383 0 0 1 .036.265v.078a4.535 4.535 0 0 1-.076 1.033 4.092 4.092 0 0 1-.408 1.312 1.391 1.391 0 0 0-.127.265 2.97 2.97 0 0 1-.088.207 2.428 2.428 0 0 1-.287.587l-.78 1.315a2.308 2.308 0 0 0-.444.724l-.1.167a3.12 3.12 0 0 0-.515.667l-.072.049a1.114 1.114 0 0 0-.344.314 1.121 1.121 0 0 1-.29.278l-.046.026-.019.048a1.019 1.019 0 0 1-.238.289 2.1 2.1 0 0 0-.227.248 1.031 1.031 0 0 1-.228.262l-.107.1a1.567 1.567 0 0 1-.195.191 1.353 1.353 0 0 0-.314.352l-.146.111c-.03.03-.06.063-.091.1a1.029 1.029 0 0 1-.261.228l-.34.367a1.019 1.019 0 0 0-.275.233l-.038.044a2.34 2.34 0 0 0-.209.2.6.6 0 0 1-.235.178 1.718 1.718 0 0 0-.547.478 3.256 3.256 0 0 1-.142.161 1.289 1.289 0 0 0-.223.165 1.21 1.21 0 0 1-.164.127.851.851 0 0 0-.39.333 1.217 1.217 0 0 1-.388.311 2.364 2.364 0 0 0-.247.164l-.6.481a1.742 1.742 0 0 1-.24.194.863.863 0 0 0-.129.1 4.17 4.17 0 0 0-.565.445h-.067l-.674.506a12.42 12.42 0 0 1-.808.655.632.632 0 0 0-.231.225.322.322 0 0 1-.155.024h-.15v.092a.307.307 0 0 0-.034.03 2.658 2.658 0 0 1-.374.291 2.33 2.33 0 0 0-.51.43.194.194 0 0 0-.028.018.37.37 0 0 0-.241.123.492.492 0 0 1-.087.066l-.4.324a1.652 1.652 0 0 1-.568.434l-.293.192c-.022.022-.05.047-.082.074a1.613 1.613 0 0 0-.235.239 2.056 2.056 0 0 0-.428.391.22.22 0 0 0-.083.184.523.523 0 0 0 .072.219l-.033.033v.141c0 .212.145.228.189.228h.078c.124 0 .124.023.124.085v.463h.255a.137.137 0 0 1 .03.013.246.246 0 0 0 .233.182l.087.014a4.241 4.241 0 0 1 .634.137l.047.008a.247.247 0 0 0 .2-.062.305.305 0 0 1 .111-.016c.054 0 .065.006.146.062l.022.012a.433.433 0 0 0 .263.122.183.183 0 0 0 .117-.039h.043l.188-.119a2.506 2.506 0 0 1 .787-.39.219.219 0 0 0 .157-.078h.08l.044-.067c.047-.071.12-.1.266-.151a1.859 1.859 0 0 1 .539-.255l.054-.022a.68.68 0 0 1 .387-.132.29.29 0 0 0 .223-.083l.035-.056a.443.443 0 0 1 .107-.044 1.407 1.407 0 0 0 .147-.056.641.641 0 0 0 .083-.023l.031-.012.053-.01c.075-.028.148-.054.22-.079a3.645 3.645 0 0 0 .636-.271l.33-.111a2.1 2.1 0 0 0 .322-.092 1.431 1.431 0 0 1 .437-.1h.114l.08-.02a1.2 1.2 0 0 1 .314-.053.209.209 0 0 1 .129.024l.067.016a.251.251 0 0 0 .141-.048 8.083 8.083 0 0 1 1.347-.109h.2a.787.787 0 0 1 .364.062l.032.016h.179l.87.075a.192.192 0 0 0 .085.04 3.554 3.554 0 0 0 .472.139 1.778 1.778 0 0 1 .543.194l.055.021a1.389 1.389 0 0 1 .513.186 1.855 1.855 0 0 1 .435.309 3.184 3.184 0 0 0 .285.226 2.2 2.2 0 0 1 .469.455l-.8.422a2.338 2.338 0 0 1-.4.141.543.543 0 0 0-.437.171.29.29 0 0 0-.121.079l-.038.012-.031.012h-.05l-.04.03a1.321 1.321 0 0 1-.212.123 1.761 1.761 0 0 0-.216.121h-.024a.469.469 0 0 0-.357.143.932.932 0 0 1-.126.063.656.656 0 0 0-.317.209c-.032.064-.086.074-.257.074a.2.2 0 0 0-.117.039l-.224.173c-.055.028-.109.06-.164.092a1.213 1.213 0 0 1-.268.131 1.049 1.049 0 0 0-.373.168c-.044.028-.087.056-.135.08a.562.562 0 0 0-.14.11l-.016.008a.246.246 0 0 0-.158.219h-.19l-.044.044a.638.638 0 0 0-.086.113h-.043a.273.273 0 0 0-.182.082.674.674 0 0 0-.481.356l-.028.018c-.069.048-.078.052-.093.052a.332.332 0 0 0-.33.161l-.016.031h-.007l-.059.012a1.563 1.563 0 0 0-.485.365 2.182 2.182 0 0 1-.176.164l-.031.034c-.034.051-.042.051-.11.051h-.241l.093.187h-.068a.159.159 0 0 0-.131.086h-.04a.194.194 0 0 0-.118-.039c-.173 0-.238.195-.259.259v.029a.866.866 0 0 0-.233.132.581.581 0 0 1-.158.092.858.858 0 0 0-.507.394.644.644 0 0 0-.065.079.418.418 0 0 1-.023.029.117.117 0 0 1-.04 0 .279.279 0 0 0-.257.2h-.056a.187.187 0 0 0-.189.189v.124h-.135l-.176.132a1.027 1.027 0 0 0-.344.218.558.558 0 0 1-.273.161l-.109.016-.018.108c-.013.075-.045.1-.118.155a.649.649 0 0 0-.136.122.285.285 0 0 0-.222.263h-.042a.406.406 0 0 0-.317.173l-.047.05a2.459 2.459 0 0 0-.458.326c-.043.036-.087.074-.145.121l-.027.028a3.5 3.5 0 0 0-.579.543 1.7 1.7 0 0 1-.351.351 2.826 2.826 0 0 0-.644.523l-.481.444a.249.249 0 0 0-.153.221.321.321 0 0 0-.232.122l-.036.059a.664.664 0 0 1-.039.094.333.333 0 0 0-.268.146c-.015.017-.03.035-.054.059l-.374.414-.23.185-.014.042a.7.7 0 0 1-.2.254.306.306 0 0 0-.055.08.4.4 0 0 0-.289.272 2.62 2.62 0 0 1-.031.069l-.077.131a3.467 3.467 0 0 1-.281.428 1.207 1.207 0 0 1-.324.431.316.316 0 0 0-.07.128c-.005.016-.015.036-.008.04l-.039.019-.1.168a3 3 0 0 1-.267.4 1.231 1.231 0 0 0-.258.511l-.038.08a1.418 1.418 0 0 1-.185.318.323.323 0 0 0-.175.316 1.064 1.064 0 0 1-.157.272l-.062.093a1.9 1.9 0 0 0-.075.178.781.781 0 0 1-.15.276.9.9 0 0 0-.143.475.592.592 0 0 0 .161.419.417.417 0 0 1 .113.286v.062l.044.044a.361.361 0 0 0 .19.12.2.2 0 0 1 .123.163l.014.056.1.07a.613.613 0 0 0 .382.144h.068a.341.341 0 0 1 .041.012c.022.007.044.015.066.02a.414.414 0 0 0 .216.046.406.406 0 0 0 .223-.051.788.788 0 0 1 .247-.028l.069-.017c.033-.017.084-.042.115-.054l.036.071h.092a.245.245 0 0 0 .2-.083 1.181 1.181 0 0 0 .184-.044.567.567 0 0 0 .086-.03 1.117 1.117 0 0 0 .271-.044.859.859 0 0 1 .2-.035 1.014 1.014 0 0 0 .442-.116l.1-.041h.049a1.345 1.345 0 0 0 .3-.048 1.1 1.1 0 0 1 .2-.034 1.411 1.411 0 0 0 .33-.121l.149-.071a.293.293 0 0 0 .243-.147.347.347 0 0 1 .11-.01.226.226 0 0 0 .16-.078l.064-.044a.294.294 0 0 1 .133-.049c.032-.007.065-.015.1-.025a.242.242 0 0 0 .2-.114h.089a.54.54 0 0 0 .375-.121.566.566 0 0 0 .357-.2.513.513 0 0 1 .051-.034.267.267 0 0 0 .281-.145.319.319 0 0 1 .267-.09h.062l.044-.044a.606.606 0 0 1 .3-.138 1.77 1.77 0 0 0 .215-.07l1.271-.657a2.8 2.8 0 0 0 .675-.352 1.954 1.954 0 0 0 .741-.377 1.716 1.716 0 0 1 .26-.159 1.585 1.585 0 0 0 .395-.264.543.543 0 0 1 .125-.057.516.516 0 0 0 .2-.107 1.221 1.221 0 0 1 .533-.28.414.414 0 0 0 .293-.164.563.563 0 0 1 .048-.047l.04-.029a2.321 2.321 0 0 1 .47-.363 1.548 1.548 0 0 0 .477-.341.264.264 0 0 0 .13-.049.981.981 0 0 0 .507-.326.661.661 0 0 1 .089-.1l.033-.034a.577.577 0 0 0 .156-.059l.452-.339a.445.445 0 0 0 .261-.306.376.376 0 0 0 .1.01.168.168 0 0 0 .176-.106l.083-.064a1.605 1.605 0 0 0 .4-.379.9.9 0 0 0 .071-.056c.032-.027.073-.062.1-.062a.383.383 0 0 0 .3-.21.339.339 0 0 1 .183-.132.17.17 0 0 0 .038-.018.557.557 0 0 0 .2-.125.281.281 0 0 1 .052-.04l.155-.141a1.6 1.6 0 0 0 .371-.45.7.7 0 0 1 .093-.051.536.536 0 0 0 .293-.265.749.749 0 0 0 .357-.352 1.093 1.093 0 0 0 .285-.414.161.161 0 0 1 .089-.089.918.918 0 0 0 .333-.334c.023-.034.046-.068.072-.1l.087-.115a.288.288 0 0 0 .1-.064l.028-.039c.02-.04.036-.078.05-.113s.029-.07.051-.078a.186.186 0 0 0 .185-.15l.011-.027c.058-.147.124-.314.225-.334l.067-.014.034-.059a2.51 2.51 0 0 1 .213-.3 1.4 1.4 0 0 0 .255-.4c.041-.068.083-.151.125-.236a1.728 1.728 0 0 1 .244-.4l.028-.039a1.691 1.691 0 0 1 .1-.173 1.1 1.1 0 0 0 .223-.581.543.543 0 0 0 .054-.052c.019-.029.042-.058.064-.087a.935.935 0 0 0 .2-.387.961.961 0 0 1 .035-.179 1.123 1.123 0 0 0 .044-.252v-.673a.4.4 0 0 0-.078-.265.219.219 0 0 1 .034-.138.361.361 0 0 0 .083-.263l-.016-.106a.375.375 0 0 1-.023-.168.157.157 0 0 1 .023-.09l.015-.057a.347.347 0 0 1 .013-.041.4.4 0 0 0 .027-.125.28.28 0 0 0-.026-.109.114.114 0 0 1-.013-.048v-.08l-.067-.044a.539.539 0 0 1-.115-.243l-.015-.049a1.129 1.129 0 0 0-.022-.141.777.777 0 0 1-.016-.1.47.47 0 0 1 .161-.06l.04-.01.091-.091.012-.006.095.094.106-.105a.306.306 0 0 0 .054-.074h.032a.382.382 0 0 0 .215-.074h.219a.254.254 0 0 0 .2-.129l.012-.016.018-.008a.5.5 0 0 0 .259-.208.3.3 0 0 0 .4-.1.35.35 0 0 1 .129-.044.211.211 0 0 0 .178-.122.193.193 0 0 0 .135.044c.093 0 .189-.071.185-.153.007-.029.026-.043.168-.043a1.031 1.031 0 0 0 .35-.042.634.634 0 0 0 .141-.04.458.458 0 0 1 .136-.036.783.783 0 0 0 .341-.055l.034-.006.017-.017a.16.16 0 0 1 .051.012.429.429 0 0 0 .145.027l.1-.013.033-.066.746-.2a.532.532 0 0 1 .12.022.368.368 0 0 0 .1.017l.067-.016a.425.425 0 0 0 .134-.116.321.321 0 0 0 .1.014 2.869 2.869 0 0 1 .6-.076l.048-.008a.722.722 0 0 1 .266-.032h.237c-.022.1-.036.211-.05.315a2.583 2.583 0 0 1-.09.461 2.462 2.462 0 0 0-.107.667 3.779 3.779 0 0 1-.043.415 2.6 2.6 0 0 0-.286.889 3.236 3.236 0 0 0-.179.658l-.016.088a1.855 1.855 0 0 0-.031.159.617.617 0 0 1-.065.225l-.02.042c-.029.1-.063.2-.1.3a3.213 3.213 0 0 0-.139.483 2.233 2.233 0 0 0-.053.249.554.554 0 0 1-.144.352l-.033.05-.052.122a1.013 1.013 0 0 0-.116.443.385.385 0 0 0 .02.108.356.356 0 0 1 .019.088v.017a1.081 1.081 0 0 0-.254.561c-.015.067-.03.133-.053.2l-.1.336c-.176.591-.359 1.2-.487 1.814a1.307 1.307 0 0 0-.086.438.567.567 0 0 0 .078.317v.153c0 .35.145.424.267.424s.134.01.157.088l.012.04a.751.751 0 0 0 .77.655.3.3 0 0 1 .113.017.3.3 0 0 0 .2.062.29.29 0 0 0 .2-.092.257.257 0 0 1 .114-.069l.04-.01.029-.029a.219.219 0 0 0 .083-.185.255.255 0 0 0-.129-.2l-.011-.008a.039.039 0 0 0-.018-.016.189.189 0 0 1 .036-.063l.034-.034.008-.048a3.453 3.453 0 0 1 .306-.874c.087-.241.165-.511.239-.77.061-.215.123-.433.193-.643l.078-.235a6.349 6.349 0 0 1 .583-1.4 6.947 6.947 0 0 1 .956-1.725l.263-.6a.52.52 0 0 0 .022-.131h.032c.161 0 .222-.189.254-.315a3.11 3.11 0 0 0 .417-.607 6.745 6.745 0 0 0 .972-1.321 1.473 1.473 0 0 0 .3-.374l.071-.118a3.2 3.2 0 0 0 .384-.4c.07-.082.138-.162.213-.237l.449-.454a2.888 2.888 0 0 1 .414-.454c.053-.05.105-.1.142-.139a4.318 4.318 0 0 0 .432-.412 2.172 2.172 0 0 1 .569-.477l.259-.155zm-19.805-6.01h.078a.137.137 0 0 1-.039.078h-.034zm-.313 1.488l-.039-.039.039-.079c0 .079.039.079.039.079a.038.038 0 0 1-.039.038zm-.039-.116zm-1.37.195l.157-.235c.118-.079.2-.117.235-.235a.717.717 0 0 1 .391-.274 1.193 1.193 0 0 1 .313-.313c.078-.117.157-.157.2-.235.078-.039.157-.039.2-.117.039 0 .078.078.078.078v.039c-.118.078-.235.117-.313.274-.2.078-.313.352-.509.431-.117.039-.117.039-.117.117a.3.3 0 0 1-.079.156 2.109 2.109 0 0 0-.469.352.121.121 0 0 1-.078.04s0-.024-.04-.034a.136.136 0 0 0-.038-.005s-.01-.04.069-.04zm-8.144 16.522v.078a.038.038 0 0 1-.039-.039zm1.331 5.09a.5.5 0 0 1-.274.157l-.039.078h-.078v-.077h.117c.039-.157.2-.157.274-.157.039-.157.157-.157.274-.157-.039.156-.196.156-.274.156zm1.684-.744a.038.038 0 0 1-.039.039h-.117l.039-.039c0-.039.039-.039.039-.078l.078.039zm1.409-.7h-.039c-.039.079-.157.079-.2.117a.038.038 0 0 0-.039-.039l.039-.039a.79.79 0 0 1 .2-.04v-.039h.078a.038.038 0 0 0-.039.035zm3.093-.783a.038.038 0 0 1-.039-.039h.039zm7.25-10.052a2.383 2.383 0 0 0-.11.389 1.547 1.547 0 0 1-.109.357l-.013.038a.631.631 0 0 1-.067.171.7.7 0 0 0-.092.286l-.412.712-.016.039a1.246 1.246 0 0 1-.148.281 2.049 2.049 0 0 0-.105.181c-.057.086-.1.167-.149.243a1.542 1.542 0 0 1-.224.322 3.25 3.25 0 0 0-.453.616 2.452 2.452 0 0 1-.38.453c-.049.062-.1.119-.155.175a1.554 1.554 0 0 0-.281.372l-.144.111-.539.578-.724.648a.353.353 0 0 0-.167.166l-.549.51c-.234.183-.416.346-.591.5-.091.082-.181.163-.275.244a7.377 7.377 0 0 1-.89.619l-.188.131a4.659 4.659 0 0 0-.653.511 1.6 1.6 0 0 1-.408.255l-.075.051a1.447 1.447 0 0 1-.281.166l-.043.023a1.284 1.284 0 0 1-.487.247l-.217.145-.03.03c-.1.136-.142.136-.193.136h-.074l-.044.044a.341.341 0 0 0-.151.117 1.417 1.417 0 0 1-.189.106 1.5 1.5 0 0 0-.245.143l-.2.117-.048.045c-.02.031-.033.046-.036.051l-.552.193-.02.077c-.009.038-.01.044-.133.07l-.064.015a1.978 1.978 0 0 0-.7.354.756.756 0 0 1-.253.131 3.85 3.85 0 0 0-.129.052l-.015-.007v.014a.307.307 0 0 0-.212.069c-.057.043-.114.091-.173.14a2.644 2.644 0 0 1-.314.238.305.305 0 0 0-.082.068.2.2 0 0 0-.124-.045.2.2 0 0 0-.137.04.191.191 0 0 0-.155.135.153.153 0 0 0-.06-.019.294.294 0 0 0-.2.064.394.394 0 0 1-.189.054h-.062l-.044.044a.546.546 0 0 1-.12.08.643.643 0 0 0-.095.059l-.388.211a.286.286 0 0 0-.225.16.178.178 0 0 0-.123-.045.264.264 0 0 0-.164.064l-.295.147-.039.028c-.105.105-.148.113-.207.113a.563.563 0 0 0-.3.055 1.735 1.735 0 0 0-.173.1.556.556 0 0 1-.231.114.424.424 0 0 0-.231.094 1.045 1.045 0 0 1-.076.018.859.859 0 0 0-.244.084 1.169 1.169 0 0 0-.5.08.834.834 0 0 0-.1.019.585.585 0 0 1-.132.019h-.461l-.016-.008a.889.889 0 0 0 .27-.62c.008-.032.014-.066.021-.1.028-.15.045-.177.069-.177h.062l.08-.079a.51.51 0 0 0 .2-.384.92.92 0 0 0 0-.1.333.333 0 0 0 .155-.179.277.277 0 0 1 .076-.121.494.494 0 0 0 .116-.181l.015-.054h.062l.044-.044a1.73 1.73 0 0 0 .3-.47l.016-.061c0-.016.014-.049.007-.052h.087l.043-.076a3.143 3.143 0 0 1 .359-.482c.048-.056.094-.11.145-.175a.5.5 0 0 1 .122-.126.576.576 0 0 0 .062-.054c.107-.123.215-.233.322-.344a6.276 6.276 0 0 0 .493-.549 1.655 1.655 0 0 0 .341-.431l.013-.025a.413.413 0 0 0 .052-.076.5.5 0 0 0 .3-.212c.063-.063.13-.125.2-.189a5.165 5.165 0 0 0 .44-.449 2.5 2.5 0 0 1 .406-.367c.065-.052.132-.1.217-.177l.243-.287a.617.617 0 0 1 .1-.046.512.512 0 0 0 .3-.246l.016-.067c0-.045.045-.085.114-.14.028-.023.055-.045.077-.067a1.21 1.21 0 0 1 .2-.134c.046-.027.091-.055.126-.078a2.247 2.247 0 0 0 .327-.261 2.735 2.735 0 0 1 .306-.252l.19-.227.025-.046a1.129 1.129 0 0 1 .051-.133.33.33 0 0 0 .258-.117h.058a.323.323 0 0 0 .223-.122.806.806 0 0 1 .285-.173 1.923 1.923 0 0 0 .53-.44.482.482 0 0 0 .27-.243.5.5 0 0 0 .364-.161l.18-.18a.761.761 0 0 0 .328-.364 1.453 1.453 0 0 0 .334-.085l.059-.02.028-.056a.638.638 0 0 0 .033-.076.194.194 0 0 0 .192-.088.252.252 0 0 0 .154-.184.691.691 0 0 0 .453-.219c.033-.029.067-.058.119-.1a.813.813 0 0 0 .088-.111l.03-.042a.5.5 0 0 0 .351-.161l.044-.044v-.062c0-.008.015-.026.038-.052a.738.738 0 0 0 .059-.073l.04-.01a2.922 2.922 0 0 0 1.076-.6l.36-.227-.069-.136a.086.086 0 0 1 .029-.006h.118a.667.667 0 0 0 .337-.088.306.306 0 0 0 .121-.074l.03-.029.01-.04c.006-.025.012-.037.012-.04a.541.541 0 0 1 .078 0h.117a.566.566 0 0 0 .4-.143.511.511 0 0 1 .081-.04.481.481 0 0 0 .247-.2.19.19 0 0 0 .1.026l.145-.055.039-.028a.927.927 0 0 1 .494-.239 4.494 4.494 0 0 0 .56-.263 3.227 3.227 0 0 1 .641-.281l.1-.028h.028v-.15a.317.317 0 0 1 .05-.011.344.344 0 0 0 .2-.086l.036-.059c.018-.054.092-.054.092-.054a2.741 2.741 0 0 0 .578-.042l.044-.009.057-.056c.014.055.032.106.051.157a.745.745 0 0 1 .06.271zm7.9.185a1.369 1.369 0 0 1-.2.509.556.556 0 0 0-.078.235.3.3 0 0 0 .039.157.468.468 0 0 1-.157.313 2.406 2.406 0 0 0-.118.431v.078c0 .235-.117.431-.117.627v.078a.336.336 0 0 1-.117.235c-.079.117-.117.156-.2.156 0-.117 0-.117-.039-.156a.135.135 0 0 1-.078-.039h.039c0-.078.039-.157.039-.274.078-.117.274-.2.274-.392v-.039c0-.039 0-.157-.078-.2 0-.039-.039-.078-.039-.117 0-.078.039-.117.117-.2a.592.592 0 0 1 .078-.313.655.655 0 0 1 .274-.509v-.078a.3.3 0 0 1-.078-.157c0-.117.118-.274.118-.392 0-.039.078-.078.078-.117a.236.236 0 0 1 .157-.039c.039 0 .078.078.078.117z"/><path data-name="Path 1183" d="M291.099 107.384a.24.24 0 0 0-.262-.225h-.062l-.044.044a.268.268 0 0 0-.066.088 7.624 7.624 0 0 0-.986.851.594.594 0 0 0-.049.058.23.23 0 0 1-.063.065l-.524.475-.026.031a1.942 1.942 0 0 1-.372.408 4.072 4.072 0 0 0-.3.3.226.226 0 0 0-.072.077 7.237 7.237 0 0 0-1.092.943.638.638 0 0 1-.1.1.615.615 0 0 0-.172.209l-.034.046-.044.061a.213.213 0 0 1-.053 0 .241.241 0 0 0-.211.181 2.151 2.151 0 0 0-.173.173 1 1 0 0 1-.21.189 1.208 1.208 0 0 0-.417.328 1.4 1.4 0 0 1-.193.109 2.731 2.731 0 0 0-.281.157.3.3 0 0 0-.125.074c-.02.02-.034.04-.074.085-.093.047-.139.086-.153.172a.506.506 0 0 0-.262.054 1.423 1.423 0 0 0-.339.216.2.2 0 0 1-.119.074 1.15 1.15 0 0 0-.5.326c-.03.046-.037.046-.1.046h-.2l-.04.03a2.482 2.482 0 0 1-.5.274c-.073.014-.139.034-.205.053a1.023 1.023 0 0 1-.292.057h-.15a.378.378 0 0 0-.231.06.834.834 0 0 1-.352 0 1.937 1.937 0 0 0-.244-.02 2.3 2.3 0 0 1-.271-.031 4.1 4.1 0 0 0-.412-.348l-.216-.167a2.364 2.364 0 0 1-.353-.674l-.023-.038a.255.255 0 0 1 0-.06.146.146 0 0 1 .022-.084l.046-.1-.076-.076a.353.353 0 0 0-.1-.123c.01-.044.023-.086.035-.129a1.465 1.465 0 0 0 .073-.425v-.113a.594.594 0 0 1 .03-.216l.008-.536a.463.463 0 0 1 .06-.159l.016-.108a.393.393 0 0 0 .038-.146l.038-.051v-.231l-.083-.041a.116.116 0 0 0-.068-.016v-.338c0-.022 0-.052-.006-.045l.044-.043v-.062a1.991 1.991 0 0 1 .063-.419c.017-.078.034-.155.047-.235.012-.051.12-.326.164-.423a.315.315 0 0 0 .215.061h.237l.058.021a.675.675 0 0 0 .231.054h.451a.475.475 0 0 0 .306-.111h.005a.447.447 0 0 0 .251-.088l.231-.066.195-.115a.6.6 0 0 0 .344-.323c.023-.025.042-.049.06-.07l.019-.024a.97.97 0 0 0 .317-.19.423.423 0 0 0 .145-.105l.029-.04a2.946 2.946 0 0 1 .152-.258 2.3 2.3 0 0 0 .219-.4l.173-.174a1.8 1.8 0 0 0 .44-.785.2.2 0 0 0 .118-.191.342.342 0 0 0 .078-.249.109.109 0 0 1 .008-.049.246.246 0 0 0 .181-.252.169.169 0 0 0-.038-.113v-.527a.886.886 0 0 1 .054-.246.938.938 0 0 0 .059-.28v-.226a.352.352 0 0 1 .022-.159l.07-.217h-.142c-.012-.012-.027-.029-.025-.038a.348.348 0 0 0-.15-.262v-.054l-.032-.041a1.751 1.751 0 0 0-1.359-.847 2.707 2.707 0 0 0-1.176.383.694.694 0 0 0-.283.218.754.754 0 0 0-.054.063 1.492 1.492 0 0 0-.391.371.275.275 0 0 0-.165.243.063.063 0 0 1-.018.046.237.237 0 0 0-.165.17.713.713 0 0 1-.124.141.479.479 0 0 0-.192.192 3.245 3.245 0 0 0-.267.327 2.389 2.389 0 0 1-.348.4l-.052.045v.069c0 .03-.021.06-.054.105a.427.427 0 0 0-.093.191l-.128.254a1.881 1.881 0 0 0-.236.308.876.876 0 0 1-.185.227l-.056.045v.072a.19.19 0 0 1-.084.176l-.043.028-.016.049a.6.6 0 0 1-.043.093.533.533 0 0 0-.078.255v.213l.023.023-.014.019a.276.276 0 0 0-.046.038.09.09 0 0 1-.031.024l-.062.031-.017.067a1.948 1.948 0 0 1-.153.373.169.169 0 0 0-.04.039 2.452 2.452 0 0 0-.412-.175l-.227-.13c-.035-.09-.072-.179-.109-.268a5.47 5.47 0 0 1-.215-.568 1.239 1.239 0 0 0-.229-.72l-.134-.168a2.353 2.353 0 0 1-.034-.34 1.425 1.425 0 0 0-.1-.544.253.253 0 0 0 .026-.107v-.117a2.56 2.56 0 0 0-.02-.291 2.237 2.237 0 0 1-.019-.257 1.025 1.025 0 0 1 .071-.3l.024-.07-.138-.2a.187.187 0 0 0 .006-.049c0-.29-.179-.306-.322-.307a1.015 1.015 0 0 0-.32-.039l.053-.053-.049-.1a.261.261 0 0 0-.212-.161l-.047.008a1.024 1.024 0 0 1-.164.034.62.62 0 0 0-.592.436.93.93 0 0 0-.129.446 9.546 9.546 0 0 0-.679 1.216 17.554 17.554 0 0 0-1.024 1.693l-.774 1.319c-.194.264-.356.513-.515.756-.2.3-.382.586-.615.881-.09.109-.179.22-.268.331a8.366 8.366 0 0 1-1.5 1.558 1.444 1.444 0 0 1-.177.091 2.15 2.15 0 0 0-.311.168.182.182 0 0 1-.022-.042 2.572 2.572 0 0 0-.087-.332 2.572 2.572 0 0 1-.107-.427v-.083a1.908 1.908 0 0 0 .157-.817 2.093 2.093 0 0 0-.04-.509.162.162 0 0 1 .012-.05.433.433 0 0 0 .028-.145 6.66 6.66 0 0 1 .029-.739l.008-.068a2.365 2.365 0 0 1 .068-.35 5.358 5.358 0 0 0 .279-1.57v-.069a7.717 7.717 0 0 1 .6-2.133.808.808 0 0 0 .143-.475 1.578 1.578 0 0 0-.086-.439.584.584 0 0 0-.09-.166c-.008-.012-.02-.027-.02-.022a.477.477 0 0 0-.384-.49c-.025-.009-.05-.018-.073-.028a.264.264 0 0 0-.162-.063c-.146 0-.2.131-.225.2a1.13 1.13 0 0 1-.021.052l-.019.008a.114.114 0 0 1-.048.013h-.05l-.04.03a.837.837 0 0 0-.367.543l-.118.251a5.4 5.4 0 0 0-.508 1.356 28.947 28.947 0 0 0-.746 3.064 6.894 6.894 0 0 0-.134 1.162c-.008.133-.015.263-.026.4l-.058.21-.178.088v.061a4.132 4.132 0 0 1-.368.383l-.047.019a.564.564 0 0 0-.306.252l-.274.309a.391.391 0 0 0-.077.058c-.015.013-.04.035-.031.036l-.181.073-.022.033a.5.5 0 0 1-.145.151.586.586 0 0 0-.2.219l-.422.272c-.024.024-.045.048-.064.07s-.037.043-.026.043h-.05l-.37.279a.346.346 0 0 1-.153.095l-.047.018h-.046a.266.266 0 0 0-.175.076h-.138a.2.2 0 0 0-.13.04.182.182 0 0 0-.109.043l-.023.012a.313.313 0 0 1-.087.028l-.2.049-.029.03a.485.485 0 0 0-.112.23h-.059a.466.466 0 0 0-.048-.034l-.044-.044h-.088c-.247-.022-.384-.287-.458-.429l-.035-.064a.457.457 0 0 0-.042-.153l.037-.038-.048-.1a.775.775 0 0 1-.024-.255l-.035-.563a.943.943 0 0 0 .114-.367.376.376 0 0 0-.021-.108.358.358 0 0 1-.018-.087v-.1l.078-.078v-.062c0-.055 0-.055.034-.09l.044-.044v-.108h.081l-.078-.311a.811.811 0 0 1 .109-.125l.03-.03.169-.724.034-.3.085-.085v-.185l.238-.51.148-.074-.064-.194.053-.16a5.487 5.487 0 0 1 .615-1.435l.107-.341v-.273l.088-.571-.151-.2-.142-.247.01-.257c0-.143-.156-.228-.306-.228a.5.5 0 0 0-.1.015.862.862 0 0 1-.173.024 4.623 4.623 0 0 1-1.3-.451 2.126 2.126 0 0 0-.934-.215 2.652 2.652 0 0 0-1.506.7l-.088.016a4.258 4.258 0 0 0-.532.484l-.2.149-.013.051a1.494 1.494 0 0 1-.7.965c-.089.057-.167.106-.167.208v.147l-.044.07a3.705 3.705 0 0 0-.88 1.614c-.392.153-.514.8-.621 1.374a2.737 2.737 0 0 1-.185.717h-.15v.15a1.472 1.472 0 0 1-.21.817l-.025.038v.045a.183.183 0 0 0 .039.117.635.635 0 0 1-.131.27l-.036.053.014.062a2.8 2.8 0 0 1 .055.438 2.027 2.027 0 0 0 .051.385.94.94 0 0 0-.031.28c0 .951 1.315 1.246 1.795 1.246a.167.167 0 0 0 .181-.121l.014-.015c.375-.406.548-.491.628-.491h.062l.3-.3a3.254 3.254 0 0 0 1.066-1.292.185.185 0 0 0 .089-.132l.393-.358a.8.8 0 0 0 .178-.3v-.012a.511.511 0 0 0-.008.092.906.906 0 0 0 .038.291c0 .009-.005.019-.01.034a.427.427 0 0 0-.028.145 2.276 2.276 0 0 0 .674 1.477 1.569 1.569 0 0 1 .188.246v.159l.117.026a1.126 1.126 0 0 1 .36.27 1.724 1.724 0 0 0 1.16.594 4.262 4.262 0 0 0 1.013-.235h.2l.067-.016.135-.06a7.533 7.533 0 0 0 1.272-.629h.014c.179 0 .189-.149.189-.218a1.82 1.82 0 0 0 .853-.676.34.34 0 0 0 .054-.046h.062l.083-.083a1.294 1.294 0 0 1 .225-.179.552.552 0 0 0 .276-.366l.092-.113.026.1c.025.056.048.113.072.171a1.557 1.557 0 0 0 .627.862.392.392 0 0 0 .156.105.383.383 0 0 1 .068.034 1.621 1.621 0 0 0 .83.506.647.647 0 0 0 .156.049c.02 0 .049.01.04 0 .1.1.161.161.263.161s.165-.064.262-.161a.907.907 0 0 1 .216-.141.322.322 0 0 0 .148.028.561.561 0 0 0 .375-.233l.03-.031a1.622 1.622 0 0 0 .341-.267 1.025 1.025 0 0 1 .174-.147 1.118 1.118 0 0 0 .567-.657.877.877 0 0 0 .283-.261c.127-.2.27-.391.413-.584a6.56 6.56 0 0 0 .682-1.055 1.147 1.147 0 0 0 .293-.476.8.8 0 0 1 .158-.289.863.863 0 0 0 .136-.217c.083-.125.181-.254.281-.386a5.178 5.178 0 0 0 .511-.766 1.176 1.176 0 0 0 .078-.239.889.889 0 0 1 .1-.287.874.874 0 0 0 .343-.644 1 1 0 0 1 .193-.376 1 1 0 0 0 .195-.394l.044.021a8.91 8.91 0 0 0 .294.863 2.1 2.1 0 0 0 .828 1.184 3.422 3.422 0 0 1 .427.412.193.193 0 0 0 .184.169.64.64 0 0 1 .384.187l.1.072c.037.018.073.039.111.06s.093.052.141.076l-.006.04a2.115 2.115 0 0 0-.022.176.382.382 0 0 0-.039.166.572.572 0 0 0-.038.221.256.256 0 0 1-.03.1.394.394 0 0 0-.045.166.187.187 0 0 0 .015.074l-.015.227a.343.343 0 0 1-.018.083.376.376 0 0 0-.02.105v.15a.3.3 0 0 0 .057.207.959.959 0 0 0-.132.47v.188a.7.7 0 0 0 .07.327l-.025.077c-.033.1.014.242.221.754a4.753 4.753 0 0 1 .185.5v.188a1.181 1.181 0 0 0 .41.969.317.317 0 0 0 .2.189l.046.053a.2.2 0 0 0 .142.1c.013.012.032.034.046.049a.584.584 0 0 0 .117.111l.137.137.059.036a.591.591 0 0 1 .1.05c.025.014.052.029.081.042a.3.3 0 0 0 .222.154l.017.024h.062a.143.143 0 0 1 .029.013c.026.069.094.129.244.138a.218.218 0 0 0 .03.019.569.569 0 0 0 .255.144.3.3 0 0 1 .083.035l.044.067h.08a1.279 1.279 0 0 0 .2-.006l.033.033.487.087h.682a.492.492 0 0 0 .221.037 1.3 1.3 0 0 0 .3-.041 2.122 2.122 0 0 0 .388-.071 1.059 1.059 0 0 0 .44-.076.425.425 0 0 0 .382-.154l.017-.007c.077-.031.155-.068.23-.1a1.936 1.936 0 0 1 .308-.127l.062-.033a1.018 1.018 0 0 1 .246-.106l.04-.01.03-.03c.014-.014.032-.036.051-.059s.048-.056.03-.051a.709.709 0 0 0 .219-.1.259.259 0 0 1 .083-.043h.075a.2.2 0 0 0 .172-.1l-.126-.079.155.042a.544.544 0 0 1 .287-.2l.079-.02.026-.077a.27.27 0 0 1 .014-.035 1.721 1.721 0 0 0 .37-.323l.084-.089a.733.733 0 0 0 .141-.088 1.23 1.23 0 0 1 .113-.078.436.436 0 0 0 .259-.1.377.377 0 0 1 .089-.054l.078-.026.02-.08c.01-.041.042-.065.111-.109.023-.015.046-.03.069-.048.108-.022.163-.108.163-.257a.058.058 0 0 1 .03-.054l.045-.022.022-.045a.587.587 0 0 1 .272-.272.394.394 0 0 0 .15-.15l.083-.042v-.064a.4.4 0 0 0 .285-.192 7.676 7.676 0 0 1 .949-1.024l.083-.042v-.061h.031v-.15l.036-.06v-.058a.258.258 0 0 0 .135-.177l.039-.029a1.214 1.214 0 0 1 .193-.113.728.728 0 0 0 .2-.127.921.921 0 0 0 .269-.471 2.8 2.8 0 0 1 .241-.419c.2-.32.287-.461.287-.569v-.188h-.023a1.47 1.47 0 0 0 .237-.4zm-10.174-.752a1.083 1.083 0 0 0 .17-.409.417.417 0 0 1 .032-.064c.017-.031.036-.064.052-.1a.368.368 0 0 0 .179-.29v-.038a1.132 1.132 0 0 1 .051-.3l.012-.048a1.718 1.718 0 0 0 .171-.305l.051-.107.016-.066a.463.463 0 0 1 .143-.205l.091-.084a.823.823 0 0 0 .285-.416.973.973 0 0 1 .146-.26.967.967 0 0 0 .134-.226c.064-.09.094-.093.155-.1a.409.409 0 0 0 .291-.144.253.253 0 0 0 .114-.078.963.963 0 0 1 .41-.178c.039 0 .076 0 .076.189v.188a.1.1 0 0 1-.031.082l-.044.044v.19a2.056 2.056 0 0 1-.184.594.225.225 0 0 0-.08.157.939.939 0 0 0-.213.463.28.28 0 0 0-.09.2.291.291 0 0 1-.035.044.574.574 0 0 0-.082.111.839.839 0 0 0-.159.133.531.531 0 0 1-.146.113l-.046.03a.842.842 0 0 0-.217.179.176.176 0 0 0-.14.147l-.014.046a.292.292 0 0 1-.049.115l-.28.121a34.41 34.41 0 0 0-.447.216l-.377.183v-.016zm-17.45-1.668a.038.038 0 0 0 .039.039v.078h-.117zm-3.211 4.855c-.078 0-.117-.039-.117-.078a1.629 1.629 0 0 1 .117-.157h.117c-.076.116-.035.236-.116.236zm.274-.431h-.039a.039.039 0 0 0-.04-.039.135.135 0 0 0 .078-.039zm.431-.391v.039a1.38 1.38 0 0 0-.235.039c0-.235.235-.274.352-.548l.039-.078c.039 0 .039-.04.078-.04l.039.04a1.207 1.207 0 0 1-.272.547zm.392-.744c-.039 0-.118-.039-.157-.039l.157-.078zm.039-.2a.144.144 0 0 0 .039-.117l.039.039zm.862-.274l-.078.235a.038.038 0 0 1-.039.039v.078c0 .2-.2.548-.235.783v.039c0 .235-.2.587-.2.862v.2c-.078 0 .039.431-.2.431v-.431l.078-.118a.038.038 0 0 0 .039-.039.236.236 0 0 0-.039-.157l.078-.117c0-.078 0-.2.039-.2v-.313c0-.078 0-.157.039-.157l.078-.274a1.534 1.534 0 0 1 .509-1.057zm-.165-2.095a1.289 1.289 0 0 0-.205.384 2.363 2.363 0 0 1-.54.886l-.164.119.13.1a4.835 4.835 0 0 0-.853 1.216c-.05.088-.087.155-.107.185a12.891 12.891 0 0 0-.867 1.024l-.291.332a1.776 1.776 0 0 0-.3.281 1.887 1.887 0 0 1-.424.37l-.3.148-.017.067c-.011.044-.09.073-.176.095l-.032-.032a.53.53 0 0 1-.006-.105 1.02 1.02 0 0 1 .075-.314 1.1 1.1 0 0 0 .082-.352.2.2 0 0 0-.02-.085h.1v-.15a.846.846 0 0 0-.054-.24.322.322 0 0 0 .132-.23.2.2 0 0 0-.022-.093 1.129 1.129 0 0 0 .219-.533.214.214 0 0 0-.018-.085l.214-.256v-.285a1.533 1.533 0 0 1 .151-.481l.094-.2a1.469 1.469 0 0 0 .42-.647.347.347 0 0 0-.034-.152c.03-.018.064-.035.095-.052.13-.069.253-.133.253-.266a.187.187 0 0 0 0-.023.607.607 0 0 0 .285-.467.919.919 0 0 1 .025-.109l.191-.191h.039l.127-.127v-.02c.095-.126.492-.573.6-.675h.03a1.223 1.223 0 0 0 .594-.281 1.231 1.231 0 0 1 .424-.228c.464 0 .751.06.751.359v.034c-.035.051-.054.068-.053.069-.143.03-.143.143-.143.287l-.127.013v.15a.163.163 0 0 0 0 .027 2.185 2.185 0 0 0-.278.536zm.4 1.546v-.078l.078-.313.274-.744.51-.94v.039c.039 0-.2.431-.2.666v.039c-.078 0-.274.313-.274.352v.078a.23.23 0 0 0-.078.2v.039a.981.981 0 0 1-.31.666zm4.659 3.8h-.157c-.039 0-.039 0-.078-.039v-.039c.039 0 .078-.04.157-.078h.078zm.392-.313a.137.137 0 0 1-.078.039l-.04.039a.038.038 0 0 1-.039-.039l-.039-.078a.136.136 0 0 0 .039-.078l-.039-.039h.118c.039.039.078.078.078.117zm.274-.313l-.274.157-.039-.039.274-.274a.038.038 0 0 0 .039.039h.039a.306.306 0 0 0-.039.118zm.039-.274l.01-.01.009.044a.045.045 0 0 1-.019-.033zm20.439-.591a.127.127 0 0 1 .045-.013.171.171 0 0 0-.045.015zm1.335-.09v-.038h.075c-.038.002-.038.039-.075.039zm.287-.665h.005zm0 0l.006-.008v.007z"/><path data-name="Path 1184" d="M234.538 98.626z"/><path data-name="Path 1185" d="M221.902 114.421l.006-.011h-.006v.008z"/><path data-name="Path 1186" d="M221.897 114.43z"/></g></g></g></g><g data-name="Group 816"><g data-name="Group 815"><path data-name="Path 1187" d="M370.394 98.359h2.276v.527h-.8v2.785h-.677l.01-2.785h-.809zm2.8 0h.875l1.025 2.512 1.054-2.512h.828v3.312h-.629l-.009-2.4-1.025 2.4h-.48l-1.016-2.437v2.437h-.621z" fill="#6b6b6b"/></g></g></g></g></svg>