<svg xmlns="http://www.w3.org/2000/svg" width="232.229" height="63.4"><defs><linearGradient id="a" y1=".5" x2="1" y2=".5" gradientUnits="objectBoundingBox"><stop offset="0" stop-color="#d50054"/><stop offset=".5" stop-color="#e10b49"/><stop offset="1" stop-color="#ff6b00"/></linearGradient></defs><g data-name="Group 223"><g data-name="Group 223" fill="#9e1c64"><path data-name="Path 96" d="M68.576 40.465a20.32 20.32 0 0 0 0 20.491l-1.362.752a20.267 20.267 0 0 1 0-21.994z"/><path data-name="Path 97" d="M74.945 47.233h1.786l-2.937 11.279H71.82l-2.937-11.279h1.785l2.139 9.235z"/><path data-name="Path 98" d="M84.979 58.512h-1.48l-.212-.822a4.456 4.456 0 0 1-2.749 1.058c-2.115 0-2.82-1.434-2.82-3.361 0-2.35 1.034-3.29 3.055-3.29h2.372v-2.068c0-1.128-.516-1.409-1.644-1.409a8.043 8.043 0 0 0-2.844.563l-.305-1.5a8.382 8.382 0 0 1 3.407-.681c2.115 0 3.219.7 3.219 2.773zm-1.834-4.911h-2.067c-1.292 0-1.574.612-1.574 1.786 0 1.2.306 1.857 1.5 1.857a4.033 4.033 0 0 0 2.141-.658z"/><path data-name="Path 99" d="M87.33 58.512v-16.12l1.833-.259v16.379z"/><path data-name="Path 100" d="M99.126 54.988c0 2.49-1.528 3.76-4.065 3.76a11.51 11.51 0 0 1-3.314-.448V42.392l1.833-.259v5.758a5.185 5.185 0 0 1 2.867-.893c1.739 0 2.679 1.034 2.679 2.984zm-1.833-4.794c0-1.1-.4-1.574-1.433-1.574a4.634 4.634 0 0 0-2.28.657v7.8a8.357 8.357 0 0 0 1.5.117c1.551 0 2.209-.752 2.209-2.138z"/><path data-name="Path 101" d="M102.839 53.531v1.408c0 1.622.658 2.28 2.233 2.28a6.945 6.945 0 0 0 2.655-.517l.282 1.457a8.511 8.511 0 0 1-3.125.588c-2.515 0-3.878-1.387-3.878-3.831v-4.177c0-2.608 1.5-3.736 3.642-3.736 2.444 0 3.408 1.363 3.408 3.831v2.7zm3.5-2.914c0-1.316-.305-2.115-1.668-2.115-1.2 0-1.833.611-1.833 2v1.527h3.5z"/><path data-name="Path 102" d="M115.506 58.512v-8.694c0-.752-.33-1.1-1.129-1.1a6.039 6.039 0 0 0-2.443.611v9.187h-1.833V47.233h1.551l.164.822a5.7 5.7 0 0 1 3.173-1.057 2.074 2.074 0 0 1 2.349 2.3v9.211z"/><path data-name="Path 103" d="M126.621 58.512h-1.476l-.211-.822a4.457 4.457 0 0 1-2.75 1.058c-2.115 0-2.82-1.434-2.82-3.361 0-2.35 1.035-3.29 3.054-3.29h2.375v-2.068c0-1.128-.517-1.409-1.646-1.409a8.033 8.033 0 0 0-2.842.563l-.307-1.5a8.385 8.385 0 0 1 3.409-.681c2.115 0 3.218.7 3.218 2.773zm-1.832-4.911h-2.068c-1.293 0-1.574.612-1.574 1.786 0 1.2.3 1.857 1.5 1.857a4.033 4.033 0 0 0 2.138-.658z"/><path data-name="Path 104" d="M128.619 47.233h6.25v1.551l-4.488 8.178h4.582v1.55h-6.461v-1.55l4.489-8.178h-4.372z"/><path data-name="Path 105" d="M136.961 45.283v-2.891h1.832v2.891zm0 13.229V47.233h1.832v11.279z"/><path data-name="Path 106" d="M146.783 58.512v-8.694c0-.752-.328-1.1-1.126-1.1a6.053 6.053 0 0 0-2.446.611v9.187h-1.832V47.233h1.551l.164.822a5.7 5.7 0 0 1 3.172-1.057 2.076 2.076 0 0 1 2.351 2.3v9.211z"/><path data-name="Path 107" d="M152.565 53.531v1.408c0 1.622.658 2.28 2.232 2.28a6.936 6.936 0 0 0 2.654-.517l.284 1.457a8.515 8.515 0 0 1-3.125.588c-2.516 0-3.879-1.387-3.879-3.831v-4.177c0-2.608 1.5-3.736 3.642-3.736 2.446 0 3.409 1.363 3.409 3.831v2.7zm3.5-2.914c0-1.316-.307-2.115-1.67-2.115-1.2 0-1.832.611-1.832 2v1.527h3.5z"/><path data-name="Path 108" d="M160.532 39.714a20.272 20.272 0 0 1 0 21.994l-1.364-.752a20.307 20.307 0 0 0 0-20.491z"/><path data-name="Path 109" d="M169.345 55.129v-4.512c0-2.209 1.127-3.619 3.455-3.619a7.771 7.771 0 0 1 2.49.4l-.257 1.481a7.131 7.131 0 0 0-1.975-.305c-1.34 0-1.881.752-1.881 2.02v4.559c0 1.269.541 2.02 1.881 2.02a7.132 7.132 0 0 0 1.975-.3l.257 1.48a7.768 7.768 0 0 1-2.49.4c-2.329-.005-3.455-1.414-3.455-3.624z"/><path data-name="Path 110" d="M183.914 58.512h-1.48l-.213-.822a4.453 4.453 0 0 1-2.748 1.058c-2.115 0-2.82-1.434-2.82-3.361 0-2.35 1.033-3.29 3.054-3.29h2.373v-2.068c0-1.128-.517-1.409-1.644-1.409a8.043 8.043 0 0 0-2.844.563l-.305-1.5a8.382 8.382 0 0 1 3.407-.681c2.115 0 3.22.7 3.22 2.773zm-1.834-4.911h-2.068c-1.291 0-1.574.612-1.574 1.786 0 1.2.306 1.857 1.5 1.857a4.033 4.033 0 0 0 2.138-.658z"/><path data-name="Path 111" d="M193.645 55.434a3.015 3.015 0 0 1-3.338 3.314 7.1 7.1 0 0 1-2.209-.329v4.72l-1.832.259V47.233h1.5l.187.822a4.994 4.994 0 0 1 2.985-1.057c1.9 0 2.7 1.057 2.7 3.055zm-1.834-5.31c0-.988-.352-1.528-1.315-1.528a4.6 4.6 0 0 0-2.4.729v7.543a6.357 6.357 0 0 0 1.881.281c1.316 0 1.832-.563 1.832-1.762z"/><path data-name="Path 112" d="M198.225 58.748a8.362 8.362 0 0 1-2.75-.471l.283-1.48a6.893 6.893 0 0 0 2.373.423c1.41 0 1.809-.588 1.809-1.645 0-1.2-.235-1.5-1.785-2-2.256-.705-2.821-1.457-2.821-3.478 0-2.232 1.317-3.1 3.455-3.1a7.141 7.141 0 0 1 2.7.47l-.258 1.5a7.352 7.352 0 0 0-2.4-.423c-1.41 0-1.691.517-1.691 1.528 0 1.056.211 1.292 1.762 1.808 2.091.7 2.843 1.34 2.843 3.5 0 2.193-1.288 3.368-3.52 3.368z"/><path data-name="Path 113" d="M205.345 47.233v8.741c0 .776.354 1.128 1.152 1.128a5.405 5.405 0 0 0 2.327-.658v-9.211h1.832v11.279h-1.551l-.188-.822a5.394 5.394 0 0 1-3.078 1.058 2.059 2.059 0 0 1-2.326-2.3v-9.215z"/><path data-name="Path 114" d="M213.245 58.512v-16.12l1.832-.259v16.379z"/><path data-name="Path 115" d="M219.139 53.531v1.408c0 1.622.658 2.28 2.232 2.28a6.945 6.945 0 0 0 2.655-.517l.283 1.457a8.515 8.515 0 0 1-3.125.588c-2.516 0-3.879-1.387-3.879-3.831v-4.177c0-2.608 1.5-3.736 3.643-3.736 2.445 0 3.408 1.363 3.408 3.831v2.7zm3.5-2.914c0-1.316-.307-2.115-1.67-2.115-1.2 0-1.832.611-1.832 2v1.527h3.5z"/><path data-name="Path 116" d="M228.703 58.748a8.367 8.367 0 0 1-2.75-.471l.284-1.48a6.889 6.889 0 0 0 2.373.423c1.41 0 1.808-.588 1.808-1.645 0-1.2-.234-1.5-1.785-2-2.256-.705-2.82-1.457-2.82-3.478 0-2.232 1.316-3.1 3.455-3.1a7.136 7.136 0 0 1 2.7.47l-.258 1.5a7.351 7.351 0 0 0-2.4-.423c-1.41 0-1.692.517-1.692 1.528 0 1.056.211 1.292 1.762 1.808 2.092.7 2.844 1.34 2.844 3.5.005 2.193-1.288 3.368-3.521 3.368z"/></g><g data-name="Group 224"><path data-name="Path 117" d="M68.616 14.392v22.126h-3.989V14.392z"/><path data-name="Path 118" d="M74.678 36.518V14.392h3.989l11.369 16.169V14.392h3.909v22.126h-3.991l-11.416-16.4v16.4z"/><path data-name="Path 119" d="M117.101 35.412a15.531 15.531 0 0 1-6.453 1.2q-11.4.038-11.434-11.514-.033-10.93 11.56-10.969a17.3 17.3 0 0 1 6.327 1.064v3.721a14.584 14.584 0 0 0-6.015-1.22q-7.755.026-7.732 7.391.025 7.985 7.344 7.961a9.648 9.648 0 0 0 2.467-.381V26.2h3.938z"/><path data-name="Path 120" d="M122.401 36.518V14.392h9.788q6.6-.021 6.615 5.917.012 4.016-5.114 6.669l6.849 9.54h-5.028l-6.588-9.6v-1.879q5.718-1.028 5.71-4.593-.009-2.449-2.686-2.441h-5.402v18.513z"/><path data-name="Path 121" d="M158.638 14.392v3.535h-10.772v5.612h10.279v3.643h-10.279v5.857h11.039v3.485h-15.013V14.392z"/><path data-name="Path 122" d="M179.669 14.392v3.622l-11.41 15.033h11.46v3.471h-15.947v-3.471l11.894-15.033h-11.664v-3.622z"/><path data-name="Path 123" d="M200.036 14.392v3.622l-11.41 15.033h11.46v3.471h-15.947v-3.471l11.894-15.033h-11.664v-3.622z"/><path data-name="Path 124" d="M207.083 36.518h-4.1l9.07-22.126h4.292l9.4 22.126h-4.29l-2.472-6.012h-7.153l1.36-3.542h4.336l-3.414-8.332z"/><path data-name="Path 125" d="M225.984 20.89a3.057 3.057 0 0 1-3.16-3.251 3.168 3.168 0 1 1 6.333.015 3.072 3.072 0 0 1-3.173 3.241m0-6.176a2.72 2.72 0 0 0-2.8 2.92 2.805 2.805 0 1 0 5.6.015 2.742 2.742 0 0 0-2.809-2.935m-1.021 4.611v-3.61h.965c.755 0 1.243.39 1.243 1.048a.974.974 0 0 1-.755.991l1.063 1.482-.545.126-1.076-1.538h-.391v1.5zm.951-3.131h-.462v1.216h.448c.462 0 .755-.21.755-.614s-.267-.6-.741-.6"/></g><g data-name="Group 225" fill="#9e1c64"><path data-name="Path 126" d="M68.089 7.855a3.653 3.653 0 0 1-3.844-3.909A3.771 3.771 0 0 1 68.106 0a3.641 3.641 0 0 1 3.838 3.9 3.771 3.771 0 0 1-3.855 3.955zm-.024-6.632a2.383 2.383 0 0 0-2.35 2.675c0 1.643.935 2.734 2.4 2.734a2.4 2.4 0 0 0 2.363-2.686 2.423 2.423 0 0 0-2.413-2.723z"/><path data-name="Path 127" d="M78.456.179h1.389v7.569h-1.557l-3.586-5.517v5.444h-1.391v-7.5h1.6l3.545 5.464z"/><path data-name="Path 128" d="M87.096 1.859a3.492 3.492 0 0 0-1.967-.6 2.376 2.376 0 0 0-2.434 2.639 2.406 2.406 0 0 0 2.458 2.7 3.671 3.671 0 0 0 2.051-.672l.276 1.344a4.981 4.981 0 0 1-2.387.587 3.629 3.629 0 0 1-3.873-3.909A3.7 3.7 0 0 1 85.129.002a5.2 5.2 0 0 1 2.423.588z"/><path data-name="Path 129" d="M88.863 7.675v-7.5h5.109v1.236h-3.67v1.883h3.01v1.245h-3.01v1.9h3.67v1.235z"/><path data-name="Path 130" d="M94.767 5.373V4.162h3.378v1.211z"/><path data-name="Path 131" d="M101.809 7.675h-2.446v-7.5h2.542c2.555 0 4.042 1.464 4.042 3.7-.002 2.313-1.476 3.8-4.138 3.8zm.012-6.26h-1v5.024h1.068a2.306 2.306 0 0 0 2.591-2.494c.004-1.69-.944-2.53-2.659-2.53z"/><path data-name="Path 132" d="M113.639 7.675h-1.475l-.624-1.774h-3.022l-.612 1.774h-1.475l2.734-7.5h1.78zm-3.594-6.236l-1.139 3.25h2.266z"/><path data-name="Path 133" d="M114.579 7.675v-7.5h1.451v7.5z"/><path data-name="Path 134" d="M117.783 7.675v-7.5h1.462v6.213h3.382v1.283z"/><path data-name="Path 135" d="M126.245 4.773v2.9h-1.452V4.761L122.175.179h1.583l1.775 3.239 1.739-3.239h1.573z"/></g><path data-name="Path 136" d="M17.178 18.282l15.958 25.475-12.352 19.719h-1.7l12.348-19.719-10.625-17H5.855l10.629 17.008L5.969 60.716h6.605L23.1 43.753l-7.013-11.2h1.7l7.018 11.2L8.85 69.238H23.8l15.958-25.48-12.35-19.716h1.7l12.356 19.715-10.625 16.967h14.949l10.625-16.967-10.662-17h-6.624l10.662 17-7.016 11.209h-1.7l7.018-11.209-15.963-25.475z" fill="url(#a)" transform="translate(-5.855 -12.361)"/></g></svg>