<svg width="200" height="200" viewBox="0 0 130 130" fill="none" xmlns="http://www.w3.org/2000/svg"><circle cx="65" cy="65" r="65" fill="#FFC100"/><path fill-rule="evenodd" clip-rule="evenodd" d="M60.566 27.695c-6.954 1.51-13.37 5.907-16.198 11.1-.712 1.311-1.741 3.989-2.285 5.951-.544 1.963-1.227 4.013-1.517 4.557-.377.703-.366 1.422.037 2.49.496 1.314.398 1.791-.776 3.795-.738 1.26-2.577 3.932-4.085 5.937C34.234 63.53 33 65.326 33 65.518c0 .548 1.086 1.114 3.203 1.67 2.515.66 3.212 1.717 2.455 3.724l-.571 1.513 11.331.003c6.364.001 12.16.232 13.22.527 2.351.652 5.294 3.184 6.187 5.32.504 1.207.675 4.673.675 13.634v12.016h18.912l-.721-3.125c-.396-1.719-1.41-5.713-2.255-8.875-2.619-9.813-1.678-14.224 4.864-22.797 6.475-8.487 8.763-15.735 7.16-22.69-2.132-9.253-10.084-16.635-20.21-18.761-4.334-.91-12.448-.901-16.684.018zM39.993 79.771c-.002.772-.14 2.222-.306 3.222-.241 1.459-.083 2.037.8 2.92 1.022 1.021 1.52 1.093 6.931 1.003 3.207-.054 6.095-.074 6.417-.044 1.642.148 2.089 8.062.858 15.178l-.325 1.875H62.551l-.15-11.733c-.135-10.47-.247-11.83-1.043-12.625-.786-.787-2.098-.91-11.124-1.046L40 78.368l-.005 1.403z" fill="#0A7CA5"/></svg>