<svg width="160" height="160" fill="none" xmlns="http://www.w3.org/2000/svg"><path fill-rule="evenodd" clip-rule="evenodd" d="M81.826 15.253c-.22.127-1.621 1.392-3.112 2.813l-2.71 2.581h-5.662c-5.587.001-5.668.007-6.166.454-.278.25-1.731 2.595-3.23 5.214l-2.725 4.76-4.998 4.753-4.997 4.754h-9.664L34.977 35.8c-1.971-2.63-3.746-4.916-3.943-5.08-.198-.164-.71-.297-1.138-.297-1.072 0-1.873.796-1.873 1.863 0 .68.4 1.297 3.56 5.497 1.957 2.603 3.559 4.873 3.559 5.046 0 .172-1.13 2.271-2.51 4.663-1.76 3.05-2.51 4.54-2.51 4.983 0 .443.766 1.965 2.56 5.086 1.408 2.45 2.537 4.526 2.509 4.614-.028.088-1.653 2.3-3.61 4.916-3.216 4.298-3.558 4.833-3.558 5.555 0 .624.122.904.559 1.28.553.478 1.524.63 2.245.353.184-.07 1.969-2.313 3.966-4.983 1.997-2.67 3.728-4.921 3.847-5.002.119-.082 2.268-.15 4.775-.151l4.558-.003 5.473 6.038c5.692 6.281 6.153 6.68 7.242 6.265.682-.26 1.36-1.165 1.36-1.815 0-.293-.154-.757-.343-1.03-.189-.274-2.594-2.975-5.346-6.002-4.652-5.119-4.987-5.537-4.785-5.98.119-.263 1.26-2.288 2.534-4.5 1.584-2.748 2.318-4.218 2.318-4.641 0-.426-.782-1.974-2.51-4.967-1.38-2.39-2.51-4.407-2.51-4.48.001-.14 7.574-7.341 7.822-7.436.081-.031 1.179 1.755 2.438 3.97 1.844 3.243 2.413 4.087 2.922 4.336.524.255 1.63.308 6.382.308 6.192 0 6.865-.095 7.351-1.04.133-.258 1.496-2.654 3.028-5.322 2.051-3.572 2.787-5.029 2.787-5.521 0-.488-.652-1.801-2.41-4.854-1.325-2.301-2.41-4.273-2.41-4.38 0-.109 1.127-1.266 2.505-2.572 1.377-1.307 2.605-2.621 2.73-2.921.674-1.632-1.183-3.228-2.725-2.343zm6.31.346c-.435.435-.587.78-.587 1.324 0 .545.152.889.587 1.324l.587.589h6.688l.587-.589c.434-.435.587-.78.587-1.324 0-.545-.153-.889-.587-1.324l-.587-.589h-6.688l-.587.589zm-72.457 7.415c-.872.811-.907 1.919-.087 2.741l.53.53h7.208c8.001 0 7.966.006 8.401-1.317.279-.846-.161-1.93-.925-2.279-.345-.157-2.699-.229-7.517-.229h-7.015l-.595.554zm62.047 5.285c1.193 2.049 2.174 3.832 2.18 3.962.007.13-.971 1.943-2.174 4.027l-2.187 3.79-4.51.054-4.51.054-2.256-3.93-2.255-3.93 2.25-3.93 2.25-3.93 4.522.054 4.522.054 2.168 3.725zm11.73 2.299c-1.22 1.223-.845 2.29 1.377 3.914 3.843 2.807 6.749 5.831 9.411 9.795 9.613 14.307 9.25 32.68-.916 46.35-11.525 15.497-32.332 20.569-49.466 12.059-7.7-3.824-13.934-9.888-17.774-17.29-.667-1.286-.968-1.661-1.517-1.891-1.338-.56-2.658.38-2.658 1.895 0 .691 2.12 4.484 3.872 6.93 7.11 9.922 17.93 16.425 29.922 17.984 3.072.399 8.274.393 11.417-.012 7.787-1.005 15.631-4.383 21.67-9.332l1.49-1.22 6.396 6.414 6.396 6.414-.448 1.232c-.616 1.697-.506 4.099.257 5.57.39.752 3.638 4.12 12.835 13.309 13.824 13.812 13.119 13.23 16.029 13.239 1.221.003 1.736-.101 2.711-.546 1.428-.653 3.151-2.268 3.824-3.584.962-1.881.954-4.598-.02-6.391-.358-.661-4.373-4.815-12.806-13.253-11.615-11.621-12.347-12.313-13.446-12.717-1.556-.571-3.558-.571-5.08 0l-1.137.427-6.3-6.315c-3.465-3.473-6.3-6.384-6.3-6.47 0-.084.683-.946 1.518-1.913 3.107-3.603 6.042-8.638 7.777-13.343 2.745-7.444 3.314-16.497 1.547-24.63-1.272-5.853-4.319-12.384-8.049-17.252-2.55-3.328-7.206-7.707-10.032-9.435-.939-.574-1.89-.55-2.5.061zm-73.328-.089c-1.017.427-1.42 1.949-.778 2.932.493.754 1.536.947 4.71.869l2.867-.07.585-.659c.768-.861.768-1.648 0-2.51l-.585-.658-3.18-.044c-1.748-.025-3.377.038-3.619.14zm70.633 9.789c-.52.438-.617.664-.617 1.416 0 .872.054.948 2.027 2.852 5.232 5.047 8.421 11.236 9.412 18.265.291 2.066.247 6.363-.088 8.557-2.06 13.49-12.574 23.845-26.187 25.788-2.336.334-7.817.129-10.163-.38-5.975-1.296-10.919-4.011-15.264-8.383-2.684-2.701-4.32-4.974-5.925-8.237-1.075-2.185-1.444-2.546-2.604-2.546-.792 0-1.596.748-1.733 1.61-.092.586.095 1.117 1.098 3.122 3.352 6.694 8.404 11.78 15.09 15.19 10.718 5.467 23.286 4.935 33.684-1.426 4.094-2.504 8.56-6.983 11.064-11.096 6.878-11.292 6.878-25.032.002-36.345-1.558-2.564-4.625-6.208-6.666-7.924-1.395-1.172-2.156-1.285-3.13-.463zm-36.893 7.985c1.163 2.021 2.17 3.816 2.235 3.988.072.19-.748 1.815-2.082 4.127l-2.202 3.815h-9.104l-2.196-3.81c-1.35-2.342-2.15-3.934-2.075-4.128.066-.175 1.073-1.97 2.236-3.992l2.115-3.674h8.958l2.115 3.674zM17.092 70.856c-1.084.62-1.316 1.967-.506 2.933l.52.62h3.505c3.454 0 3.513-.008 3.998-.495.673-.675.677-1.886.01-2.665l-.485-.566-3.28-.05c-2.475-.038-3.4.017-3.761.224zm99.645 42.313c.853.406 23.944 23.605 24.213 24.326.609 1.636-.197 3.446-1.934 4.341-.562.289-1.969.291-2.537.004-.623-.316-23.797-23.524-24.145-24.181-.326-.615-.376-1.718-.11-2.414.228-.595 1.325-1.745 2.007-2.101.69-.361 1.716-.351 2.506.025z" fill="url(#paint0_linear_242_25)"/><defs><linearGradient id="paint0_linear_242_25" x1="20.309" y1=".521" x2="80" y2="145.959" gradientUnits="userSpaceOnUse"><stop stop-color="#D50054"/><stop offset="1" stop-color="#FF6B00"/></linearGradient></defs></svg>